<?xml version="1.0" encoding="UTF-8"?>
<svg id="Layer_2" data-name="Layer 2" xmlns="http://www.w3.org/2000/svg" viewBox="0 0 831.97 755.96">
  <defs>
    <style>
      .cls-1 {
        fill: #10241b;
      }
    </style>
  </defs>
  <g id="Layer_1-2" data-name="Layer 1">
    <path class="cls-1" d="m831.35,552.94l-.56-1.63-.17-.73v-.67l.22-.73-.06-1.91-1.01-2.25-1.07-.95-1.18-1.57-1.57-.45h-.9l-.9,1.4-.95,1.12-.62.34-2.36-.45-1.29-.84-1.07-.79-.84-.56-.79-.11-.67.17-.62.56h-1.68l-1.29-.22-1.23-.56-1.74-2.47-2.53-4.32-.84-3.26-.39-2.19-.17-1.35.06-1.12.34-.62.45-.79.45-1.07-.06-.79-.39-.9-1.85-1.57-6.34-6.34-2.41-1.35-3.37-.9-1.01-.28-.11-.39.73-.45.06-.73-.95-.9-.56-.39-1.23.06-1.68,1.23-2.19,1.01-1.57.51-2.36-.06h-.62l-.51-.62-.28-1.4-.67-.62-.62.06-.9-.28v-.67l.51-.28.62-.11v-.67l-.9-1.35-1.35-1.18-3.98-.95-4.5-.9-3.78-1.8-.82-1.46-1.6-6.47-11.33-5.21-13.22-5.04-10.13-2.4-9.62-3.09-4.98-.97-2.92-.17-1.14-.23-.46-.92h-1.49l-1.14,1.2h-1.49l-.86-.17-1.03-1.43-1.03-.11-1.37,1.2-1.89,1.09-1.14-.11-.57-1.26-.23-2.06-.69-3.09-1.32-2-1.14-1.26-2.8-1.89-2-1.83-1.49-1.09-2.4-.63-1.09-.8-.8-1.03-.69-1.6-.46-5.44-1.14-5.15-1.84-5.73-4.6-7.12-1.3-4.03-.94-2.52-1.02-1.02-.04-1.22.69-.33,1.22-.65v-1.47l-.53-.77,1.63-.61,1.22-1.34-.08-1.59-.57-.45-1.42,1.3-1.83,1.47-1.22.65-1.95.12-.9-.65-1.42-1.3-5.29-2.97-4.03-3.18-1.42-1.59-2.04-.81-1.99-.77h-.94l-.04,1.55.24.85-.9.2-1.59-.41-1.38-.65-.49-.65v-.41l.98-.57.41-.94.9-1.67.85-2.69.08-2.48-.16-1.55-.49-1.51-.57-3.99.57-5.41,1.47-3.22,2.2-4.68,1.3-1.42,2.24-1.38,2.65-1.34,3.01-1.1,3.62-1.26,5.01-1.91,3.42-1.79,2.77-1.47,1.55-1.75.85-3.01.28-3.54.37-6.15.04-4.23-.77-1.02-.81.77-.33,3.18-.73,2.2-.49,3.7-.85,3.83-.9,2.24-1.51,1.67-1.38.2-1.83-.57-1.75-1.1-1.22-.2-1.3.37-.98-.08-.9-.37-2.56-.04-1.22-.08-.33-.2v-.37l1.02-.33,3.58-.08h2.16l1.79.61,1.22.73,1.26.49,1.99-.12.45-.53.12-1.59.04-1.26-.45-1.14-1.48-1.28-2.13-1.16-3.93-1.36-3.41-1.24-3.33-1.36-2.05-1.04-2.01-.16-1.93.12-.8.76-.24,1.04.08.92,1.2,1.28,1.2.48.88.92.12,1.04-.28,1.08-.32.96-1.85-.04-2.41-1.12-1.64-.96-1.52-1.08-2.93-2.29-2.57-2.01-3.01-2.37-1.7-1.2-1.57-.92-1.49-1.17-2.89-1.57-2.77-.68-5.99-.44h-3.14l-4.58-1.33-3.14-.44-2.01-.44-1.81-.84-3.78-1.81-5.15-.88-7.12-.8-2.09-.64-1.93-1.09-.4-1.41.08-1.73.16-1.25,1.09-1.09,1.41-.4,1.77-.76,1.49-2.17.12-2.09.96-1.25,1.17-1.65,1.85-3.46,1.01-4.06.24-2.25.33-3.44v-2.93l.52-3.1.86-2.24,2.59-2.07,3.27.34,2.05-.46,2.78-2.38,2.58-2.51,1.92-1.46,1.19-.26,1.12.26.79,1.19,1.19.4.66,1.19-1.72,1.59-3.37,1.12-4.3,2.12-.93,1.06.6,1.19,1.46.93,1.45.2,2.45-.26,7.61-3.11,1.92-.99,1.98-.46,2.12.13,2.05.66,1.85.73,1.52.46,1.65.4,1.79-.86.6-.4,1.12.46v1.12l.53.93,1.72.2,1.52-.73,1.19.13.33.73-.07,1.12-.26,1.12.33.99.99.26.93-.26.73-1.19.13-.99.26-.86,1.92.46,1.46.26.73,1.06.93,1.12,1.79.99,2.12-.07,2.05-.53,1.12-.26.07-.66-1.06-.2-.93-1.39-1.59-1.26-.99.07-.33-1.32-.13-1.17-1.43-2.23-4.29-.95-3.5-.48-3.97-.32-1.43-.32.16-1.27-.07-1.15-.82-.41-1.29.88-2.51.68-1.97-.2-.95.41.07,1.9-.68,1.29-1.22-.14-1.15-.75-.61-.54-.07-.75.41-.48-.48-1.02-1.43-.82-1.77-.54-1.09-.61v-.54l1.09-.14,1.22-.07.54-.48v-.95l-1.09-.88-3.53-2.24-3.33-3.94-2.04-2.92-2.04-2.51-1.09-1.83.82-1.43,1.83-.82,1.56.68,1.77.41,2.11-.27,1.36-1.43.75-1.77.68-1.49,2.51-.48,2.38.14,2.58.75,5.03,1.77,5.91,1.09,4.35,1.09,4.69.27,5.64.07,4.07,1.09,3.4,1.15,2.45,1.22,1.36,1.49,1.49,2.04,2.04,1.49,1.43.68h.88l.88-.95-.88-.48v-1.56l.82-.61,1.02-.54-.95-1.02-1.77-.68-.41-1.22.41-.68,2.99-.14,1.7-.2.61-1.09v-1.83l.07-2.38-.48-1.82-4.08-.19v-21.14l.74-4.45,16.88-10.76,15.39-9.64,10.83-6.79,3.15-.86,2.29-.19.29-.95-.19-1.72,1.15-2.19.67-3.05-.48-4.96-1.34-7.06-2.29-6.68-2.19-6.78-3.53-5.92-2.58-2.67-4.39-2.19-3.91-.1-5.2,1.85-6.56,2.7-6.95,1.16-5.02,1.93-5.02.77-4.63-1.93-3.09-4.25v-3.47l1.09-4.63-3.59-.72-3.05-.72-1.97-2.69-3.05-1.08-2.15-3.23-1.79-2.69-1.43-1.79-2.87.36-.18,2.33,1.97,2.69,2.69,2.33v3.23l-2.51,2.51-3.59,1.25-4.66-3.05-2.42-3.48-3.71-5.85-3.57-6.28-2.85-2-3.71-.29-5.28-.71-3.14-1.28-.57-2.28-3.14-2.71-3.28-.43-1.43,2.14-3.57.29-1.43-1.85-1.14-1.28,1.28-2.14,3.14-1.71v-1.85l-1.71-1.14-1.71-.86-3.14,1-4.42,3.85-3.42,3.28-2.57-.14-4.28-1.71-11.84-1-14.41-1.43-11.13-.29-17.69,1.85-18.12,4.57-10.84,3.71-9.84,5.28-7.81,5.48-3.38,2.22-2.4,1.51-1.8,1.88-.91.85-.77.15-.66-.37-.35-.1-.27.08-.35.72-.33.85-.99,1.3-2.75,2.17-1.91,4.6-.81,2.26-.7,2.11-.63,1.21-1.02,3.98-.9,1.97-.15,1,.1,1.04.51.87.68.9.36.85-.32.44-.05.63.97.73,1.94.87.78.68.02,1.7-.49,1.31-1.21,1.46-1.09,1.02-.15.41.02,1.48.56.83.41.78-.15,1-.58.61-.1.44.49.68.68.61.32.27v.39l-.9,1.04-1.34,3.13-.41.85.12,1.31,1.31,1.04,1.92,1.8,2.65,1.9.53.41.36.58-.17.75-.78.56-.95.83-.05,2.36.63,2.07.73,1.53,1.72.95,2.82.36h1.87l.97-.19.73-1.09.87-.78.8-.05.78.19.95,1.07.46,1.21.83.36.87.27.68.97.7.95,1.6.85,1.31,1.26.56.8v.87l-.41.73-1.29.95-1.38.41-1.14.7-.97,1.24-1.21,2.26-.63,5.03-.66,5.2-.07,1.65-.34.75h-.36l-.27-.19-.17-.78-.51-.53-.66-.73-.83-.29-1.29-.24-1.46.05-1.48.53-2.09,1.14-1.12,1.12-.41.78-.05,1.53.12,4.13.73,3.21.63,1.53.85,1.82.85.85,2.21.83,1.85.75,1.09.66.73,1.17.8,1.19,1,1.17.39.73-.1.75.32,1.22,1.63,2.45.63,4.2.63,4.7,1,4.08,2.45,3.2.75,1.44,1.19,1.76,2.2,4.14,1.25,3.2.75,1.32,1.69.63.82,2.01.19,1.13v1.57l1.51,3.32.75,2.01-.31,1.57-3.01,2.45-4.27,1.76-2.51,2.13-1.19,1.82-.06,3.2-1,2.2-3.32,3.64-.82,1.07-.44,2.38.44,1.94,2.2,2.26,1.57,1.69.38,1.51v1.19l-2.01,2.57-4.14,4.2-6.77,2.38-3.83,1.51-2.26,1.07-.63,4.58-1.63,2.45-1.07.94-2.07-.88-9.1-1.88-9.53-1.13-6.21-1-5.52-2.57-4.08-3.64-1.69-1.32-.13-2.07-.82-1.51-2.32-3.7-1.13-4.89-2.07-5.58-.75-2.07-.06-1.82.06-1.32v-1.19l-1.32-1.44-6.02-7.34-1.19-2.63v-1.57l.75-1.25.5-1.69.13-3.14-.44-1.38-.38-1.07-.19-1.19.82-1.07.25-1.82-.63-.75-1.13-1.94-.06-1.76.88-1.82,3.01-2.82,3.89-4.39,1.19-2.45,1.19-3.7.5-2.95.19-3.14-.82-2.63-1.07-.94-.5-1.13-.19-.94-2.01-.56-1.76-.38-.82.19-.94-.31-.44-.75-.94-.38-1.44.38-1.25-.5-8.34-4.45-2.95-.75-1.51-.31-.69-1.44-.06-1.63-1-1.51-.75-1.63-.13-1.13.25-.56.38-.44-.31-1.07-.13-.94-.5-8.47.13-7.03-.38-1.82-1.57-2.01-1.38-1.76-.13-1.69.94-1.94,1.38-1.69-.06-5.02-1.38-4.83-1.38-9.72-1.44-6.34-1.82-4.33-1.38-2.26-3.2-3.26-4.96-4.2-.25-.69h-1.44l-.88.25v.75l-.69.19v.56h.63l.56-.06.13.82-.06,1-1.63-.06-2.51-.13-1.13-.5-.88-.75-1.76-1.07-1.25-.31-1.19.19-.38,1-.69.25-.63-.06v-.88l.69-.94-.06-1-.38-1-1.38-.63-1.07-.38-1,.63-.19.75-1.25.06-1.63.06-1.25.06-.75-.5-.13-1.13,1.07-1.69,1-1.07.88-.5.06-.94-.56-.75-3.51-.13h-2.76l-2.7.75-2.89,1.94-2.82,2.89-3.2,2.7-1.88,1.69-.63,2.26-.75,1.51-2.38,2.07-2.51,1.44-4.58.44-4.33-.06-3.9.04-1.39.98-2.1,2.07-2.35,1.15-2.62.33-2.51-.49-1.58-1.01-1.91-.93-1.01-1.15-.27-1.86-1.09-.27-.82-.63-1.31-2.81-2.16-3.27-1.75-1.15-6.36-2.43-1.26-.87-3.71-1.64-4.39-1.23-6.09-2.57-3.57-1.34-4.42-1.56-1.09-1.31-.63-2.05-.85-4.88-.65-2.1-4.58-4.67-1.58-1.56-.87-.85-.79-.49-.41-.63-.3-1.36-.9-.71-.65-1.12-.44-2.1-.16-2.65-.85-1.2-2.76-2.37-2.24-1.2-2.48-1.28-1.69-.41-1.2-.93-.46-.96-.08-1.56-.44-1.04-.87-.9-1.61-1.26-1.61-.52-1.45-.71-.52-.82-.93-1.66-.65-1.91-.27-2.73-.44-.63-.9-.46-1.39-.38-1.15-.16-1.12-.44-.6-.19-.19-1.96.25-1.31.44-.74.22-.38.05-1.26-.14-1.01-.82-.76-.35-.33-1.77-.14h-1.15l-.76.79-.71.25-.79-.08-.3-.68-.25-1.09-.16-.85-.49-.9-.27-.27-1.77-.19-1.34-.98-.57-.74-.14-1.42.25-.85.6-.82.71-.44.49-.68.87-.19.79-.41.25-.52.52.52.11.74.25.65,1.99.05.85-.16.27-.46.98-.35.6-.05.25-.79v-.87l-.22-.49-.52-.3-.16-.44v-3.74l.14-1.34.41-.71.79-.76.49-.52.08-1.69.03-.9.55-.38.93.05.96.19,1.01.41,1.39.41,3.66-.16,2.67-1.34.79-.96.25-.9.38-1.34.25-1.28.44-.9,1.26-.6,1.96-.52,2.46-1.06,3.85-3,3.55-4.18,1.42-2.37.82-2.46.74-2.18.52-1.8.14-2.21-.19-1.09-.85-1.01-1.26-1.09-1.12-.96-.63-.57-.14-.49v-.57l.08-.57.14-1.64.25-.6.25-.38v-.52l-.38-.25-.08-.71.03-.68,1.01-.35,1.31-.08,1.64-.49.98-1.17.68-1.09.3-1.39.08-1.66-.22-1.77-.27-.76-.22-.74-.16-1.34.03-1.15.27-.96.85-.93,1.31-.6,1.47-.93,1.23-.55,2.1-1.5,1.06-.87.71-1.09.05-1.09.35-.65.63-.71,1.31-.14,1.77-.85.68-.79.3-.79v-.68l-.25-.55-.44-.14-.49-.41v-.87l.38-.6.96-.9,2.18-2.46.96-1.2.35-1.31-.03-.85-.05-1.17.14-.57.65-.57.65-.57.6-.57.27-.63v-.49l-.11-.46-.41-.33-.49-.22-.03-.3-.41-.19-.55-.22-1.09-.05h-.57l-.3.27-.05,1.04-.08,1.28-.41,1.12-.38.38-.51.04-.8.03-1.38.8-.96.8-1.25.29-.61.61h-.55l-.29-.68-.61-1.06-.48-.58h-1.13l-1.32-.45-.9-.29-.32-.26v-.64l.16-.48.68-.61.74-.32,1.64-1,1.61-.8.74-.64.26-.84v-.87l-.64-.93-.45-.58-1.19-1-1.09-.35-.84-.22-.64-.55-.58-1.19-1.13-1.22-2.31-.51-1.77-.19-2.57-.42-1.16-.45-1-.8-1.51-.71-1.29-.26-.71.23-1.13.8-1.16.19-1.16-.51-1.09-1.13-1.61-.87-1.45-.35-4.44-.71-1.16-.19-1.74.26-2.38,1.09-3.41.61-1,.45-.77.29-1.13.03-.61-.39-.68-.26-3.41-.13-3.12.06-.9.23-.87.45-.42.1-.96-.1-.71-.29-1.03-.06-2.09.1-3.28.68-2.96,1-2.48.42-1.01.88-.98.72-1.44.29-4.74.65-1.31.26-1.96.72-.82.82-.88.23-.46.33-.2.46.23.75.1.49-.1.36-.52-.1-.49-.46-1.01-.1-4.28-.13-7.12.1-3.2.26-3.43,1.67-2.39.42-1.31.62-1.01-.1-.69-.33-.52.23-.36.52.29.82.13.78-.65,1.18-1.76,1.96-2.29,1.76-1.86,1.01-2.35.69-2.74.2-2.29.33-1.37,1.34-1.63,1.44-1.83.46-1.73.07-1.37-.46-1.44-1.7-3.36-2.47-1.21-1.15-.56-.18-.5.08-.29,1.11-.13,1.39-.11,1.21-.29.55h-.76l-.53-.29-.52-.56-.35-.77-.21-.52-.45-.26-.44-.02-.45.24-.4.34-.54.09-1.64-.11-1.64.11-1.85.37-1.25.54-2.57,2.63-4.08,2.89-3.13,2.39-2.44,1.94-2.52,1.38-2.46.65-2.35.32-1.98.13h-3.54l-1.51-.13-.95-.19-1.4-.34-3.17-1.27-.74-.95-.42-1.27.32-1.69,1.29-1.53.71-.86.92-1.02.81-1.07.36-.86.1-1.17-.66-1.37-1.63-1.27-.51-.81v-.51l.41-.71.61-.36.71-.25-.05-.66v-.56l-.66-.71-1.02-.56-1.27-.86-.56-.41-.36-1.27v-1.22l-.46-.97-1.12-.46-1.48-.36-2.44-.46-.71-.56-.66-.56-.25-.97-.15-1.53-.2-.46-.92-.56-1.73-.36-.98-.1-1.78.1-3.83.1-1.64-.21-2.67-.68-1.98-.14-2.49-.89-1.64-.96-1.13-.82-.27-.41-.03-.62.07-.44.21-.48.31-.42-.19-1.51-.32-.69-1.83-1.02-1.88-.43-2.99-.3h-5.67l-3.75-.04-1.37-.04-.98.26-1.24,1.24-1.19,1.45-1.32,1.32-.94,1.96-.77,1.79-.38,2.09v2.35l-.17,1.28-.94,1.58-1.28,2.09-.77,2.69-.6,1.66-.34,2.47-.34,1.66-.13,2.56-.26,2.9-.17,2.13-.77,1.96-.9,1.71-1.79,1.28-2.13,1.83-3.54,2.65-3.03,2.73-2.86,1.45-4.39.98-2.9.54-2.25.96-2.25,1.93-1.28,2.41.16,2.73,1.61,1.77.32,3.21-1.93,2.89-1.61,1.93-.16,2.09,1.61.96.32,3.05v4.98l-.8,1.28-.64,1.61.16,4.98v5.14l.64,1.93v1.93l-1.45.32-.16,3.37v3.21l1.93,5.94.96,10.28.48,2.89,3.69,3.69,1.12,3.37,1.45,3.37,3.85,4.34,3.37,9.15,2.25,5.3.96,2.57,2.57,1.61v2.89l-.8,1.61.8,2.09,4.34,6.74,2.73,6.1,10.12,13.97,1.12,8.03,3.21,6.42,2.89,4.5,5.14,4.01,4.66,9.8,4.18,7.71,3.37,7.39,1.93,8.19,1.61,7.23,2.09,6.91-.32,5.94-.16,6.58-1.28,2.57-1.45-1.12-2.89-1.28-5.14-.64-2.89-.48h-4.01l-2.09-.48,2.73-1.45h4.18l3.53-.48,1.93-.96.64-1.77-1.12-1.93-1.77-3.21-.32-2.73.96-2.25v-2.73l-1.61-2.09-1.12-2.57-1.45-2.73-2.09-3.21-.96-2.89-2.09-.8h-3.85l-4.82.16-4.98,1.28-4.66,1.28-3.05,2.89,2.73,4.01,4.34,4.34,3.85,2.89.8,4.66-2.73,4.18-5.62,5.62-12.22,11.89-3.94,5.57-3.25,5.91-2.55,5.33-1.04,4.52,1.51,4.41,1.85,4.06,3.01,4.29,1.51.81,2.67.35,5.22-.46,2.67,1.16,3.71,2.43,2.43.58,1.39,1.04-.58,1.62-1.85,1.28-5.1,1.74-2.32.93-.12,2.67.46,2.2,1.86,1.39,4.64,2.9,4.87,2.55,2.67,2.09,1.04,2.9,1.62-.46.35-.93,1.38-2.3,3.13-1.11,5.07.74,7.84,1.38,4.52.74,3.73,2.66,1.22,1.77,1.47.3,1.47.51,1.52-.15,1.42-1.22.86-1.37,1.67-1.72,1.52-1.06,2.84-.1,3.8.46,2.33.41,2.94,1.11,1.62.71,2.63,1.22,1.87.56.66,1.62-.46.96-1.45,1.69-1.38.17-1.47-1.17-1.81-1.17-1.04-.65-1.6-.13-1.34-.04-1.38-.22-1.25.09-1.04.52-2.42,1.17-1.68,1.6-.04,1.08-.73.26-.39.04-.56.69.99,1.25,1.08.6,2.38-1.47,1.38-.35,1.04.09.26.6-.26.52h-.91l-.69.09-.6,1.25.13.43-.38,2.88-.13.48-.15.55-.23.78-.13.78-.08,1.03-.5,2.16-1.15-.23-1.18-.4-1.3-.53-1.13.43-.8,1.1-.8.65-2.23,1.91-.9.58-.65,1.03-.03.53.55.53.73.1.85-.58.85-1.05,1.1-.83,1.28-.73,4.34-1.9,1.51-.24,1.75.48,1.21.72,1.63-.06,1.21.48.48,1.33-.42.6-1.05.56-1.3-.34-1.02-.61-.75-.55-1.09-.07-2.39.55-1.23-.2-1.64.82-1.23.48-.89.68v1.02l-.27,1.23-.2,1.37.41.75.68.68,1.84.2.96.61-.41,1.16-1.09.14h-1.64l-1.16-.34-.55-.14-.48-.41-.75.75-.55.75-.68.89-.82,1.09-.2,1.64.41,1.78,1.57.75,3.62,1.16,2.39.14,2.62.44.11,3.77-.23,1.37.57,1.94,1.03.34h1.03l1.71.8,1.37.34,1.49.57,2.4-1.71,3.77-1.71,1.26-1.03,2.51-1.71,1.03-1.6,1.14-3.09.69-3.31.46-3.77,2.1-2.22,1.43-3.12,2.7-1.94,2.44-1.18,3.12-1.6,3.12-2.87,1.94-1.69,1.85-2.44,10.2-3.45,6.07-1.77,3.29-1.01h3.54l2.28-.17,1.85-.84.76-1.1,2.53-.51,2.78.34,2.44-.59,3.18-.58,1.06.56.87,1.06.37.5,1.56.25,1.12.56h.93l1.56.12,1.37.06.56-.44,1.06-.12.12.62.06.75.56.25.75-.06.62.31.12,1.24.56.19.31.5.12.68-.19,1.06-.12.56v1.68l.75,1,1.68.81,2.36.87,4.42.5,2.43.44.62.31.44.5-.31,1.06-.19.81v.93l-.25.87-.62.62-.19.56.06,1.18.56,1,.62.19,1.93,1.12,1.37,1.12,1.68,1.56,2.92,2.61.62.93.37,1.24v1.37l-.06,1.87v.93l.31,1.43.25,1.12-.25,1-.62.81-1.06,1.06-1.99,2.49-1.43,1.87-.56,1.37-.44,1.68-.31,1-.81.06-.93-1.49-1.37,1.43-1.31,1.56-.37,2.05.68,1.06.62,2.36.93,1.93.5,1.06-.37,1.31-1,.56-.56.06-.31.75.06.87.19,2.8,1.06,1.68,1.43,1.74,1.62.93,1.18,1,.06,1.56-.25,1.49.06,2.24,1.18,1.93,1.18,1.12,1.99.56.31,1.31-1.24,2.55-.81,2.8-1.24.93-1.8,1.18-1.43.44-2.68.93-1.31.75-.62.87v1.12l.68,1.24,1.49,2.68,1,3.42-.06,2.99-1.24,2.18-.62.56h-.93l-.68-.75.12-.93.12-.44v-1.06l-.93-1.49h-1.06l-.75.62-.56,1.8v1.24l.56,1.06.25.44-.06.87-1,.5-.87.44-.75.93-.44,1.49-.44,1.74.56,1.49.75,1.31-.79,1.57-1.47,1.8-.47,2.73-2.93,4.8-1.93,3.2-1.07.73-1.4-.13-.47.53.13.53,2,.07,1.2.07.47.8,1,1.27.53,1.47-.2.87-.87.2-1.87.13-.53.87-.6,1,.34.96,1.15.14.47.15.52-.39.62-.71,1.33-.86,1.08-.05,1.92.17,1.87,1.6,2.02,1.85,1.28,2.02.05.62-.22.27h-.54l-1.11-.69-.86-.42-1.03.69-.49.79-.64.84-.12,1.13.84-.2.62-.59.44-.74.59-.44.69.15.17.64.37,1.03.49.12,1.5-1.06.84-.79.37-.69.42-.34,7.86.15,4.41-.07.96.02,1.31.3,2.93.17.64.22.27.07.49.12.59.1.64.07.62-.05.52-.15,1.35-.67.59-.05,1.13-.17,2.61-.15,1.48.2.64.17.42.32.37.05.34.12.25-.49.84-.17.84.22.59.22.69.27.44.84.34.44.07.3-.05.62.12.54.22.44.71-.12.79.07.52-.02h.3l.34.44.12.3.02.27.05.62.1.34.3.32.32-.02.44.15.1.54-.32.39-1.23.02-.81-.44-.94-.79-1.23-.52-1.38-.64-1.63.17-1.11.71-.34,1.01.05.62.3.2.2.57.15.86-.02.84-.1.49-.25.44-.25.34-.52.07-.76.1-.39-.02-.62-.51-2.06-.15-1.28.05-1.18.36h-.67l-.72.15-.62.51-.31.72-.72.46-2.06.1-1.75-.46-1.95.1-1.44.87-.46.93v2.21l.51,3.6.82,2.31,1.49,4.63.57,1.44.57.41,1.75-.26.77-.46.98.15.98.87v.62l-.31.93.36,1.64,1.28,1.95,1.18,2.16.82.87,1.87,2.81.84.79.6.6.23.56.51.14.46-.19h.42l1.12.74,1.21.51,1.91.28,1.07.23.42.6.74-.42.23-.7.42-.23.37.51.19.79.79.09.79.51.42.7.46.51h.84l1.58.93,1.35.14,2.03-.31,1.18-.27.79-.17.27-.48.41-.33.91-.02.83.29,2.75,2.17,3.08,2.38,2.61,1.53,4.3,1.32,2.5.97,3.06,2.13,1.49,2.3.31.93.12,1.39-.02,1.01-.21.37-.37.46-.1.64.06.5.64,1.03,1.76,1.71,1.23,1.37,3.46,2.46,1.58.78.9.31,1.6.75.59.66.58.69.38.4.6.23.35.14.55.2.56.53.35.42.43.23.2.48.26.46.22.42.16.59v.27s-.14.27-.14.27l-.27.22-.31.05-.42-.13-.67-.24-.67-.24-1.45-.18h-.42l-1.09.18-.67.12-.54.36-.79.85-.3.73-.06,1.15.18,1.45.73,1.09,1.09,1.15,1.82,1.03,1.78.62,2.04,1.19.93.47.75.9.72,1.32.03.9-.26.44-.85.28-1.55-.05-.44.28-.18.9.34,1.24.78,2.09.39,1.4.75,1.58,1.27,1.63,1.29.88,2.82.57,1.47.49.41.41.54.39.39.31.08.57-.1.57-.44.47-.57.26-.34.34-.23.31-.1.39.49.1.59-.41.65-.57.47-.8.49-.52.62-.05.75.49,2.82,1.94,2.38.96,3.93,1.37,1.8.99,1.97.99,1.97,1.74,1.22.99.58,1.16-.29,1.04-.7.7-1.62.41-.58.17-.69,1.09.04.51.17.42-.08.98-.21.23-.21.23-.15.13-1.02.23-1.23.15-.93-.04-.57-.34-.38-.32-.55-.3-.83-.02-.62.13-.85.04-1.06-.08-.74-.3-.76-.51-.45-.23h-.81l-.98.11h-.93l-.53.06-.34.36-.19.23-.17.47-.02.53-.4.36-.32.32-.17.34-.04.59-.15.47-.36.3-.55.19-.59.06-1.38-.93-.72-.68-.51-.49-.87-.4-.62-.38-.19-.4-.19-.51-.13-.3-.21-.17-.4-.13-.25-.08-.4.06-.42.13-.76.04-.49.06-.36.17-.21.21-.13.38-.02.87.21.47.32.3.49.19.62.23.42.17.28.4.28.21.28.64.19.42.19.59.38.38.42.53v.49l-.3.28-.7-.17-.89-.64-.47-.76-.19-.47-.38-.45-.47-.28-.72-.25-.64-.83-.96-.85-.53-.34-.62-.12-.76.08-.45.11-.59.28-.47.36-.3.32-.25.23-.08.32v.28l.21.19.34.25.23.32.47.23.36.34.45.56.64.35.49.49.4.89.1.69.05.64.54.69.49.45h.54l.3.49.59.15.54-.3.35-.45.64-.1.94.05.79.4.35.49.69.84.79.89.59.89.69.69.2,1.04.25.94.94.25,1.63.74,1.83.79,1.48,1.58.84,1.14.2,1.63.64,1.88.05,1.63-.15.64h-.99l-.59-.25-.4-2.08-.69-1.83-1.63-2.06-1.96-.62-1.35-.56-.82-1.18-.49-1.18-.54-1.3-1.18-1.06-.68-.98-.79-.12-.39.07-.25.63.08,1.13.2.76.68.6,1.04,1.07.32.8-.02,2.18-.17,1.01-.21.48-.84.05-.62-.53-.43-.63-.5-3.32-.23-1.11-.1-1.31-.35-.67-.6-.32-.39.14-.75,1.06-.61.69-.44.57-.06.35.44,1.17.55,1.52.55.69.31.61.06,1.07.2.61.43.23.24.27.16.36.11.6v.51l.2.54.29.38.43.13.41-.05.21-.16.07-.29v-.43s.57-.72.57-.72l1.08.07.58.8.87,1.59.29,1.16,1.08,1.3,1.3,1.59.51.65.51.43h1.01l.94-.43,1.37-.51.65-.43,1.08-.29,1.16.07.65,1.16.22,1.23.65.8.72.29.8-.43.58-.94-.43-1.16-.65-.43-1.45-.72v-1.37l.29-1.01,1.3.14,1.23.65.8,1.16.72.87.87.51,1.52.29.43,1.45.04,1.05.28,1.27,1.84.99,1.98.71,2.26.21,1.69.07h1.13l1.62-.14,1.91.07.35,1.55-.21.92-.78.21-.85-.14-.49-.35-1.55-.07h-1.13l-.56.35-.14,1.48.21,2.26.07,1.84.07,1.06-.42.49-1.06-.07-.99-.56-.56-1.41-.42-1.06-1.13-1.06-1.06-.42-1.41-.56-2.12-2.05-1.41-1.27-.64-1.55-.42-.78-1.13-.35-1.06-.21-1.06-.28-.92-.07-1.27.14-.78.42-.71.85-1.34.71-1.2.28-.92.35.21.92.92.49.92-.42,1.27-.56,1.69-.78h1.48l1.06.35.64.99-.14.85-.78.21-.99.56-.92,1.06-.78.28-.64.21-1.41-.56-1.41-.78-1.84-.07-1.62.07-1.2.49-.85.99-.64,1.55v1.41l.71.92,1.41.28,1.13-.07,1.55-.07.85.07.49.71v1.06l-.49.85-.21,1.2.14,1.06.85.64,1.27.64,1.34-.07.71-.85.21-1.06-.14-.85-.35-1.13.85-.64.99.21,1.05.92.79,1.43,1.59,1.83,1.83.95,1.35.16.32.79-1.11.16-.79-.16h-2.22l-.32.95,1.03.95,2.38.4.87-1.03,1.98-.24.79.95,1.83.08,1.67-1.35,1.91-2.3,2.06-1.67,2.19.03.97.62,1.23,1.23,1.93.53.62,1.49-.18,1.23.53,1.14,1.93.18,1.76,2.11,2.02,1.76,1.14,1.49.44,1.85.35.88.53.79.97.09,1.23-.62,1.41.35.18,1.32-.53,1.76h-1.58l-1.58-.26-1.49-.62h-.7l-.26,1.05.35,1.32,2.29,2.29,2.37,1.05,1.53.62.54.54h.6l.24-.42,1.25-.18.95.54.24.78-.24.78-.72.72-.12,1.19.12,1.19h1.25l.95-.36,1.85.36,1.31.84.78.3.9.6.54.78,1.31.72,5.19,2.45,11.34,3.22,7.69,2.05,8.25,2.79,7.11,2.24,6.77,2.2,1.14.42.89.3.85-.08.34-.68.04-.63-.21-1.4-.42-.51-.3-.47-.17-.93-.04-.93.13-1.57.38-1.27,1.14-1.78,1.35-1.18,1.14-1.27,1.4-.38,2.2-.34.93-.42,1.27-.72,1.27-.21,1.82-.13,1.69-.17,1.27-.42.63-.47.38-1.31.04-1.52-.04-.76-.3-.25h-.68l-.93.47-2.07,1.4-1.73,1.35-.63.63-.97.08-.76-.21-.3-.63-.13-.89.08-.47.17-.3.72-.25.85-.17,1.02-.72,1.31-.51.89-.51.89-.55.51-.63,1.14-.34.68-.13.3-.63.04-1.27-.08-5.33.06-2.49v-.87l-.17-.81-.46.06-.81.64-.41.41-.12.98-.06.58-.75.23-.87-.06-.81.17-.46.46-.69.17-.75.17-.12,1.1.41.46.41.58.58-.06.75-.23.93.17.41,1.04v1.04l-.12,1.27-.41.41-.58.06-.64-.46-.35-1.27-.52-.35h-1.27l-.41.17-.41.23-.93.12-.75-.23-.52-.69v-1.27l.35-.64-1.04-.93-.81-.46-1.39-.06-.58.41.12.98.52,1.22.75,1.04.58,1.33v.75l-.69.17-1.68-.17-2.37-1.97-1.56-1.56-.52-1.22-.64-.17-1.04.29-.58.64-.46.98-.58.64-.58.06v-2.43l.98-.64.87-.87-.35-1.22.23-1.62.52-1.56.93-1.1,1.27-.64.75-.29.75.35.12.81.23,1.16.52.93,1.27.46,2.49.17,2.08-.12.93-.17.37-.45-.79-.99-.36-1.54-.87-2.21-.95-2.41-.71-1.62-.43-1.66-.32-.63-.36-.2-.43-.04-.4.2-.27.65-1.99.77-2.61-.15-1.84-1.53-.61-1.69v-1.62l.37-1.47.96-1.25.88-.74,1.47-.37,1.33-.52,1.69-.66,1.25-1.03,1.18-.74.66-.59.07-.66-.07-.52-.66-.37.37-1.03.37-.81.44-1.03,1.47-1.55.88-.44.52-.81-.15-.81-.59-.22-.96.07-.52.52-.88-.29-.59-.81.07-1.69.44-3.68.22-2.28.29-5.08.07-6.99-.59-2.06-.66-1.99-1.25-2.21-2.21-3.68-.66-1.4-.15-2.21v-2.8l-.22-2.43-.74-1.1-1.18-3.39-.22-3.02-.07-3.24.22-3.17.59-3.39,1.77-2.14,1.22-1.83,2.81-3.66,3.15-2.52,2.21-1.59,1.07-.6.73-.6.36-.83.03-.55-.18-.52-.55-.68-.47-.65-.26-.55.13-.88,1.01-.47,1.48-.44,1.72-.39,1.2-.18.78-.39.65-.46.84-.15.61-.3.61-.84-.53-.76.08-1.07.08-2.36.3-1.45.99-1.22.91-1.68.76-.99.76-.15.91.53.38.99.15,1.45.23,1.75.84.91,1.98.91,1.14.84.61.99-.15.76-.69.38v1.07l-.15,1.52-.08.99-.15.76.91.69.38.91-.08,1.14-.08.69.15.69.23.84.76,1.45,1.22,1.14.84.76.15,1.14v1.3l.15.99.46.84.23,1.37.15,2.21.53.99h.91l1.14.84.3,1.68.3,1.6.69,1.37,1.07.46.99.53,1.07.38,1.14.23.76.99.76,1.75.23,8.31,1.45,5.26.69,1.14,1.91,1.98,1.75,3.6.2,1.38-.03,1.56-.29.29-.12.49.44.32v4.15l-.96,1.6-.11,2.77.85,1.49,1.81,1.38,1.92,1.6-.11,1.92-2.45,2.13-2.98,2.34-1.17,2.45.64,3.09,1.6,3.3,1.17,3.19-.64,1.7-.85.96-4.31,3.11-4.01,3.11-5.81,3.91-3.91,2.1-.4,3.31.7,2.5,2.1,1.5,3.11,1.6,3.21.5,2.3-.1,2.4-1.5,3.01-.9,3.31-1.2,3.01-.3,3.11.9,2.4,1.4,2.8,2.8.7,3.11v3.11l-1,2.5-3.41,2.3-2.7.7-4.41-.1-4.61,1.1-4.21,2.4-2.3,2-.7,1.2v1.8l1.6,1.6,1.7.3,2.1,1.3,1.2,1.4,1.7,1,1.9.6,4.21-.6,4.21-1.3,4.91-1.7,4.41-2.5,5.01-2.2,3.21-.4.93.18.17,2.64-.11,4.24-.22,2.59-.17,3.2-1.1,1.16-1.16.61-1.27.61-.33.99.11,1.71.77,1.65,1.54,1.43.66,1.38.22,1.82.22,2.59,1.27,2.92,1.32,2.92,1.32,2.31,1.65.99,1.82.39,2.31-.06,1.49-.39,1.71.06.94.44.77,1.21,1.65,1.16,1.93,1.38,3.14.11,4.35,1.87,6.06,2.75,4.46,1.38,2.26.83.06,1.38-.99.22-20.49-7.11-7.77-1.87-2.81-1.16-3.91-.28-2.15-.17-.99.88v.88l1.38.11,1.76.28.99,1.27-.06,1.1-.55.66-1.1,1.38-.83,1.27v1.27l.66.5,1.43-.33,1.21-1.16,2.09-.66,1.71-.17,2.86,1.05,2.48,3.47,3.86,2.92,3.14,2.92,6.17,1.1,7.66-.17,5.34.11,1.6.39.61.77.28,1.1.66.44,1.05-.17.77-1.6.99-1.05,4.57-1.05,4.63-1.49,1.65-1.21.5-.94.83-.94,1.93-.61,2.09-.22,1.87-.66,1.16-.77,1.43-2.15,6.12-2.53,13.94-4.74,11.13-3.14,6.28-1.6,6.5-2.31,3.58-1.71,3.31-2.15,2.42-2.15,1.38-1.49,1.21-2.04,1.76-1.54,3.58-2.98,4.46-2.37,11.02-6.23,9.2-3.03,8.93-4.3,7.55-4.19,6.01-3.97,3.64-2.64,2.98-2.26,4.85-5.56,4.74-4.46,7.66-4.46,5.29-2.09,3.2-1.27,3.36-.5,1.71-.55.44-.61.06-1.05-1.27-.39-1.21-.06-.44-.94.66-.72,1.6-.77,1.27-1.05,1.54-.33h1.1l1.16-1.65,1.16-1.49,1.87.06,1.16.06.44-1.05v-.88l-1.76-.33-1.05-.33-.11-.77-.88-.39-1.38-.22-.17-.88.66-.99,1.32-.66,1.76-.11,2.04-.44.94-.99,1.43-.94.94-.44,2.2-2.04,1.43-1.27.44.5.5,1.05.77-.28v-.77l.61-.06.44.39.99.33.66.06.61-.77.33-.94.61-.39,1.38-.5.06-.55-.44-.44-1.43-.06-1.43.11-1.43-.22-.17-.55-.5-.33-1.49.06-1.82.33-2.26-.11-1.21-.5-.5-.77-.06-.77.28-.88.17-.99v-.5l-.28-.72-.28-.5-.88-.22-1.1.11-1.05.11-.61.44-.39.94-.33,1.1-.22,1.16-.11,1.1-.77.88-.55.39-.66.11-.55.5-.39,1.49v2.2l-.17,1.71-.66,1.43-1.1.11-1.21-.53-1.39-1.01-1.42-1.23-.25-2.44.47-2.91,1.46-6.77.91-4.59.68-2.48,2.14-3.72,1.8-3.27,3.04-2.03h1.8l2.25.79,1.35,1.24,1.01,1.01h2.03l.23-1.01.11-1.13,1.8-1.13.9-.34h2.82l1.46.11,1.24-.45-1.13-2.03-1.69-.11-.79-.79,1.24-.34,1.58-.11,1.46.23,1.46.34,1.69,1.01,1.24.34.79-.34-.9-1.58v-1.69l.23-1.35,1.58-1.35,4.39-.9,3.38-.56,1.91.11,1.13.23,1.35,1.8.23,1.35-1.58,2.82-1.24-.11-2.14-.79h-1.13l-1.13,1.91-1.13,1.69h-2.14l-1.24.79.34,1.13,1.91.79,1.69-.23,1.35-.34,1.13-1.46,1.58-.79,1.13-.11,2.25.79.9.45,1.24.11.9-1.46,2.14-.45,2.14.23,2.14.34,1.24.9-.34,1.01-.79.11-.56,1.24-1.24.68-1.24-.23-2.36-.34-1.13-1.13-1.46.45-1.13,1.35,1.46.68-.23,1.8h-1.13l-1.46-1.46-1.91.23-.79,1.69-.11,1.35v1.8l.79,1.46,1.01,1.13.9.68,1.69-.56.56-1.13.45-1.35.45-1.01,1.24-1.13,1.01.11.9-.23h2.7l1.46.23-.11,1.58-3.04,2.48-.79,1.13h-2.48l-.79,1.35.45,1.58,2.36,1.35,1.8.23,1.24-.11.23-1.01-.45-1.35.23-1.8,1.01-2.03,2.36-1.8,5.07-3.83,2.36-2.36,1.8-1.01,2.14-.9,3.15-.11,1.24-.11.9.45v1.46l1.13-.34,1.35.23.45,1.24-.68,1.24-1.35.23-.9.34-.11,1.35.23,2.25,1.58,1.69h1.46l.23-1.46,1.46-.45,1.58,1.01-.11,1.58.79,1.46,1.13,2.14,1.8-.79-.34-1.58-.9-2.48,1.01-.79,1.46-.11,1.46.45.45,2.7v.9l.79,1.35,1.46,1.24,1.24.79h4.5l2.48-1.01,1.8-1.13,1.69-.45,1.35-.23.79-1.13.23-.79,1.46-.11h.79l.9-.34-1.24-1.58,2.14-.34,1.69.45,1.46.56,1.58,1.13h1.91l1.58-.34-.56-1.46-2.25-1.13-2.14-.11-1.24-.9-.45-1.01-.79-1.46-2.82-1.46-1.69-.11-1.35.9-1.46.79h-1.91l-2.14.9-1.13.23-2.25-1.35-2.25-1.35,1.24-1.24,1.35-.45,1.35-1.01v-1.01l-1.46-1.13-1.24-.45-.45-1.91.11-1.46,1.46-.56,1.01-1.01.79-2.14.11-1.46.64-1.21,2.38-1.3,2.89-2.24,2.67-1.3,2.6-.14,2.09.72,3.75,1.37,3.03,2.24,1.01,1.52.94,2.38-.29,2.31-.14,2.45.07,2.74,1.23,2.02,2.09,1.37,2.09,1.52,1.01.43h.72l1.08-.72,1.15.07,1.23.14.07-.87-2.09-1.08-.79-1.01-.87-1.3-1.01-2.31-1.08-1.8-.51-1.66v-1.15l1.01-.79.29-1.23-.29-1.3-.87-.72-.65-.36-.22-.79.79-1.3,1.8-2.38,1.66-2.81,1.01-1.66,2.17-2.31,2.38-2.31,2.45-3.03,2.38-2.81,1.66-3.1,2.07-3.77,3.93-2.64,4.04-1.96,3.99-1.57,3.99-1.18,3.31-2.64,2.13-1.96,1.12-1.63.73-1.91.11-1.07-.28-.79-.34-.95-.06-.79.17-.84.79-.79,1.01-1.4.51-1.57.11-2.19v-1.35l-.62-1.01ZM172.55,266.44l-.86,2.47.74,2.59-.25,1.85h-3.45l-1.48-.37.25-2.47,1.6-4.07.25-1.97,3.21-.37v2.34Zm206.5,240.74l-3.39.21-4.45,2.75-2.96,2.01-1.06.95-.85.21-3.39-1.69-2.96-.74-2.65.74-3.18-.42-2.12-2.33-.42-2.43.64-2.12.64-2.33-.11-1.27-1.27-1.16,2.33-1.38.95-1.38,1.27-.11,2.33-.11,2.54-1.06,1.27-.21,2.96-.11,1.69-.85,2.65-2.22,2.12,1.16-.21,1.48,1.27.95,2.22,2.01.32,2.54.32,1.8,1.69,1.38,2.43,1.38,1.91,1.8-2.54.53Zm167.6-91.71l2.47,1.7.46,1.7-3.09-.15-4.01-4.79-5.56-4.94-8.64-4.63-9.42-4.48-9.88-4.01-8.03-2.62-6.79-.62h-4.94l-.15-1.54,6.79-3.4,8.49-.77,6.48-1.54,6.64-1.85,7.1.46,5.25.93,3.4,3.7,4.17,6.02,4.48,4.17-.15,3.24.93,2.78,2.93,1.7,3.24.31,1.54,1.23-1.23,1.85-2.78,2.78.31,2.78Zm104.48,131.72v2.81l-1.03,1.03-.89,1.33-.44,1.77-.44,4.58-.59,5.91-2.07,5.47-1.03,3.55-.3,4.14v5.91l-.59,2.51.74,2.66.89,3.25-.15,3.4-1.18,3.99-1.48,1.33-1.63,2.22-.74,3.1.89,2.81v3.1l-.59,2.81-2.07,3.1-2.07.59-2.51.15-3.1-2.07-.89-3.25-2.07-2.22-2.96-3.1-2.66-1.63-3.99-2.81-2.36-.59-.59-2.66-1.18-2.96-1.48-2.22-1.18-1.92-1.63-.15-.15-2.66-.59-3.55-1.18-2.22-1.63-.74-1.03-1.92-1.33-8.57-3.25-6.65-2.81-4.14-5.02-3.99-2.22-3.25-2.66-3.99-2.96-2.66v-2.07l1.18-1.03-.44-1.48-.74-2.96,1.63-4.14,1.92-4.73-.15-3.4,1.18-1.63.59-2.51-1.03-1.18-1.77-.3-1.63.59.15-1.77,1.92-2.66.15-2.36,1.03-1.92,2.36-1.18,2.36-1.03.89-1.77,1.03-2.36.15-2.36v-2.66l-.15-3.1-.44-2.36-1.63-1.92-2.51-1.48-3.25-1.63-3.25-.3-3.69.15-1.92.44-1.63.44-2.07-1.33-.89-1.33-.74-1.92-1.63-1.18-1.48-1.63-.74-2.22-.3-1.63,3.1-.15,5.02,1.18,3.1.15,5.02-2.51,3.25-3.69,1.03-2.36-.3-2.22-1.18-1.92,1.63-.59,3.4-1.03,4.14.74,1.18,3.25,2.22,4.29,2.22,2.07,3.55,1.48,4.73.59,4.58.59,4.88.74,2.36,1.63,1.92,2.81,2.22,3.84.3,2.07,3.1,1.92,1.77,1.63v2.22l-2.22.3-1.03,1.18.15,1.33.59,2.07-1.92,1.77-1.92,2.81-.3,3.84,1.18,4.29,4.73,7.24,3.84,3.4,1.77,3.99,1.63,2.51,1.18,3.84,1.33,1.48,4.58,3.69,3.4,1.48,1.48.15v2.22Z"/>
  </g>
</svg>