<?xml version="1.0" encoding="UTF-8"?>
<svg id="Layer_2" data-name="Layer 2" xmlns="http://www.w3.org/2000/svg" viewBox="0 0 535.3 676.32">
  <defs>
    <style>
      .cls-1 {
        fill: #fff;
      }
    </style>
  </defs>
  <g id="Layer_1-2" data-name="Layer 1">
    <polyline class="cls-1" points="38.31 26.92 43.07 24.23 46.8 18.64 51.98 12.42 61.3 5.59 71.03 2.69 74.55 2.48 80.76 0 89.04 .62 94.64 2.28 100.23 6.01 100.85 9.94 99.81 14.91 96.29 18.22 92.15 21.74 92.98 23.81 95.67 28.99 96.91 36.24 96.91 43.69 96.29 52.18 95.26 59.02 93.39 63.57 90.08 69.37 89.25 73.93 91.12 78.48 95.67 81.38 101.47 84.9 102.71 86.35 100.23 87.8 96.71 89.04 95.05 91.12 97.12 91.94 102.3 92.56 107.27 93.19 109.55 93.81 110.99 95.67 112.24 97.95 114.1 102.09 118.45 102.71 121.97 103.95 125.7 105.82 129.63 108.72 133.77 113.89 138.95 119.9 140.81 123.42 141.64 126.32 142.26 130.67 145.78 134.39 153.65 140.4 158 143.51 162.76 144.13 168.77 144.96 174.36 147.03 179.75 149.1 184.3 151.17 186.58 154.27 188.44 158.83 191.13 162.97 195.69 165.87 200.25 168.56 206.67 172.91 211.22 174.98 215.78 175.19 220.54 176.85 222.4 177.88 224.89 178.71 229.44 177.88 235.86 174.57 241.25 171.67 246.63 171.67 254.92 173.74 257.61 176.64 259.89 181.19 260.92 187.2 264.03 195.28 267.75 202.73 270.24 206.87 271.69 210.39 277.07 214.33 283.08 217.23 290.74 219.3 298.2 222.82 302.75 226.75 303.99 233.38 301.92 237.31 298.82 242.28 294.88 247.05 291.78 252.02 287.22 255.54 284.94 257.61 282.87 262.16 281.42 266.3 278.52 272.31 275.62 276.45 272.1 280.39 270.86 283.7 272.1 288.67 274.17 293.23 278.94 298.61 285.36 302.75 290.95 306.69 296.33 310 296.54 311.86 292.81 312.9 291.36 314.55 291.57 318.49 293.85 320.77 300.06 321.18 307.51 322.84 313.1 324.91 319.73 325.53 328.22 324.08 341.27 322.63 348.1 322.01 353.9 323.04 356.18 323.25 358.46 319.94 364.87 314.35 372.54 311.45 381.03 309.79 389.72 312.69 411.67 320.15 424.72 324.49 428.66 326.98 427 329.46 423.48 329.88 417.27 330.91 410.43 330.91 402.56 330.71 395.52 330.91 387.65 331.33 380.41 330.29 377.51 332.57 373.99 335.88 373.16 337.54 371.71 339.82 372.54 342.1 376.26 343.75 382.68 345 388.27 345.82 391.8 348.52 395.32 351.83 401.32 353.07 408.98 354.11 417.27 357.42 424.72 364.25 432.59 368.4 438.18 372.12 445.64 373.99 449.78 375.23 455.16 377.3 458.27 380.2 460.34 382.06 460.96 384.96 460.96 387.86 459.72 390.76 460.34 393.66 462.82 395.52 463.24 397.39 466.14 398.21 469.66 398.63 475.04 400.7 476.08 404.63 476.08 407.95 471.94 408.78 466.34 408.15 461.17 405.88 457.03 403.81 451.43 403.81 448.33 405.05 443.15 402.98 438.8 397.8 435.07 393.45 431.14 392.62 425.55 395.32 422.03 399.46 418.51 404.43 414.37 410.85 412.3 416.64 412.92 423.06 415.82 427.41 420.37 431.35 424.1 436.11 427.41 441.08 431.97 443.98 437.15 446.88 442.94 450.61 448.33 454.13 455.58 457.03 458.89 457.65 463.86 459.3 466.14 462 466.97 465.52 465.1 474.83 463.44 479.18 462 482.91 461.58 485.6 462.2 488.71 463.86 490.78 463.86 493.89 462 497.2 461.37 500.93 463.24 505.28 465.31 509.62 468.62 515.21 473.18 517.91 476.49 522.88 478.35 526.81 479.18 532.82 479.18 538.61 479.6 543.58 481.67 547.93 486.64 553.52 492.23 558.7 497.82 563.05 506.52 571.13 511.07 574.03 513.35 576.92 514.8 579.2 517.29 580.24 521.84 581.89 524.74 583.55 525.36 586.45 526.81 589.56 529.71 590.59 533.02 590.59 535.09 591.83 535.3 595.15 534.47 597.84 531.57 598.46 529.3 598.25 528.05 601.57 528.26 603.43 523.91 606.54 520.18 610.47 518.74 612.54 516.04 614.41 512.52 613.58 509.42 613.78 507.76 613.78 506.1 616.27 506.52 619.17 507.97 621.86 509 625.17 509 627.66 507.76 629.94 507.76 631.8 507.97 635.32 505.9 638.63 501.34 641.12 496.37 641.53 491.19 640.08 487.47 639.88 484.36 640.08 481.88 642.36 481.05 645.47 478.98 647.33 475.66 647.33 472.14 646.5 467.17 645.47 464.69 646.92 463.86 650.02 460.75 652.92 455.58 653.75 451.23 654.17 447.91 654.37 446.67 656.03 443.77 662.24 442.53 665.35 440.25 667 434.87 667.21 431.35 668.45 427.41 670.73 424.93 671.35 422.24 671.77 419.54 673.42 414.57 676.12 411.47 676.32 404.01 676.12 399.04 675.91 396.14 674.67 391.8 672.39 389.93 669.28 389.52 664.52 389.72 659.34 391.59 653.13 394.07 649.4 397.18 647.95 403.18 647.12 412.3 646.71 418.72 645.88 422.65 645.88 424.51 644.64 425.34 642.78 423.27 640.5 420.58 639.46 412.92 639.05 403.18 638.43 395.32 638.22 391.38 636.77 393.04 634.7 396.56 633.25 397.59 630.97 396.97 628.49 394.69 626.21 392.62 624.76 392.62 622.28 395.32 620.2 399.04 618.96 403.39 618.13 407.12 616.27 407.12 614.2 404.01 612.54 398.84 611.09 393.04 609.44 390.14 607.78 385.38 605.71 380.82 606.95 375.85 606.54 369.84 605.92 364.25 605.71 359.28 604.47 354.11 600.95 352.45 598.25 353.9 596.18 355.35 595.56 356.59 593.49 356.18 591.63 353.9 589.56 350.17 588.52 345.41 587.07 342.1 584.59 340.85 581.48 340.44 577.55 341.89 574.44 341.68 569.88 340.03 565.54 338.16 563.67 337.13 560.57 333.61 554.35 329.26 547.93 323.87 540.89 315.59 527.85 312.48 518.94 310.41 513.35 309.17 507.97 305.65 504.86 297.99 503.41 290.33 503.62 285.15 502.17 281.01 492.85 278.11 484.15 276.24 474.83 276.45 468.83 277.28 465.1 279.56 462.82 280.59 460.13 279.35 456.82 277.07 452.88 272.31 452.68 269.62 447.09 266.72 444.6 263.82 441.29 263.41 437.56 265.06 435.7 267.75 433.63 271.69 431.76 274.59 425.14 275.21 419.34 273.76 413.75 271.07 409.19 267.96 404.84 262.99 400.7 258.23 398.42 250.77 396.35 245.18 394.49 239.18 393.04 234 393.24 229.86 394.69 216.19 402.98 211.43 406.91 209.36 410.85 207.29 415.4 202.94 418.72 198.38 420.99 195.9 424.1 194.03 427.62 193.21 431.14 190.31 435.28 186.37 439.84 184.72 443.98 179.95 448.12 177.88 451.43 175.19 454.95 173.53 459.92 172.08 464.07 169.39 466.34 165.66 469.24 160.69 468.41 156.76 466.14 153.45 463.03 148.89 461.37 145.37 459.92 145.37 457.85 147.44 455.37 147.86 452.88 144.75 448.74 141.64 445.43 136.47 445.43 133.36 444.6 129.01 440.25 129.01 435.07 130.25 433 128.8 429.69 128.6 425.76 128.39 416.85 127.98 411.47 124.87 403.6 126.32 400.91 125.49 397.8 124.66 392.42 125.9 387.03 125.49 382.06 126.11 378.13 127.15 373.16 129.01 367.77 126.11 360.94 122.18 352.86 119.28 343.96 114.31 332.57 113.69 326.15 110.79 323.04 105.2 320.35 101.06 319.52 100.02 317.04 98.57 313.52 92.98 311.03 76 302.34 76.62 300.47 80.97 301.09 92.36 301.09 92.98 299.23 88.42 297.57 84.28 294.47 81.18 291.78 80.76 286.6 80.76 280.8 82 274.8 80.14 270.65 76.21 264.03 71.24 258.85 65.64 252.43 64.19 244.77 64.4 238.14 66.06 234.83 70.61 229.65 72.06 225.72 70.61 221.99 68.75 215.98 65.23 212.46 60.26 210.81 54.88 209.36 54.25 206.87 50.53 206.25 46.39 206.87 42.87 206.25 39.97 203.97 37.07 203.77 35 206.46 32.3 209.77 30.23 208.53 28.99 204.18 26.71 194.86 23.61 188.86 20.92 182.23 16.36 177.67 10.77 174.57 7.66 172.08 6.83 167.11 8.08 159.45 6.21 155.31 5.18 150.13 2.9 148.27 0 145.37 .21 140.61 3.11 138.33 4.35 135.43 3.31 131.29 3.52 125.9 4.35 120.31 3.11 112.03 1.04 106.23 .21 99.4 .41 93.81 3.11 89.67 6.63 85.94 9.32 83.04 10.15 79.52 12.84 77.24 16.77 75.17 19.26 73.72 21.74 70.2 23.19 66.68 25.88 63.16 28.58 58.19 31.27 51.98 30.65 46.39 29.61 42.04 30.65 38.72"/>
  </g>
</svg>