<?xml version="1.0" encoding="UTF-8"?>
<svg id="Layer_2" data-name="Layer 2" xmlns="http://www.w3.org/2000/svg" viewBox="0 0 256.6 233.16">
  <defs>
    <style>
      .cls-1 {
        fill: #a8bba2;
      }

      .cls-2 {
        fill: #182714;
      }
    </style>
  </defs>
  <g id="Layer_1-2" data-name="Layer 1">
    <path class="cls-1" d="m256.41,170.54l-.17-.5-.05-.23v-.21l.07-.23-.02-.59-.31-.69-.33-.29-.36-.48-.48-.14h-.28l-.28.43-.29.35-.19.1-.73-.14-.4-.26-.33-.24-.26-.17-.24-.03-.21.05-.19.17h-.52l-.4-.07-.38-.17-.54-.76-.78-1.33-.26-1-.12-.68-.05-.42.02-.35.1-.19.14-.24.14-.33-.02-.24-.12-.28-.57-.48-1.96-1.96-.74-.42-1.04-.28-.31-.09-.03-.12.23-.14.02-.23-.29-.28-.17-.12-.38.02-.52.38-.68.31-.48.16-.73-.02h-.19l-.16-.19-.09-.43-.21-.19-.19.02-.28-.09v-.21l.16-.09.19-.03v-.21l-.28-.42-.42-.36-1.23-.29-1.39-.28-1.17-.56-.25-.45-.49-2-3.5-1.61-4.08-1.55-3.12-.74-2.97-.95-1.54-.3-.9-.05-.35-.07-.14-.28h-.46l-.35.37h-.46l-.26-.05-.32-.44-.32-.04-.42.37-.58.34-.35-.04-.18-.39-.07-.64-.21-.95-.41-.62-.35-.39-.87-.58-.62-.56-.46-.34-.74-.19-.34-.25-.25-.32-.21-.49-.14-1.68-.35-1.59-.57-1.77-1.42-2.2-.4-1.24-.29-.78-.31-.31v-.38s.2-.1.2-.1l.38-.2v-.45l-.16-.24.5-.19.38-.41-.03-.49-.18-.14-.44.4-.56.45-.38.2-.6.04-.28-.2-.44-.4-1.63-.92-1.24-.98-.44-.49-.63-.25-.62-.24h-.29v.48s.06.26.06.26l-.28.06-.49-.13-.43-.2-.15-.2v-.13l.3-.18.13-.29.28-.51.26-.83.03-.77-.05-.48-.15-.46-.18-1.23.18-1.67.45-.99.68-1.44.4-.44.69-.43.82-.41.93-.34,1.12-.39,1.54-.59,1.05-.55.85-.45.48-.54.26-.93.09-1.09.11-1.9v-1.31s-.23-.31-.23-.31l-.25.24-.1.98-.23.68-.15,1.14-.26,1.18-.28.69-.46.51-.43.06-.56-.18-.54-.34-.38-.06-.4.11-.3-.03-.28-.11h-.79s-.38-.04-.38-.04l-.1-.06v-.11l.31-.1,1.1-.03h.67l.55.19.38.23.39.15.62-.04.14-.16.04-.49v-.39s-.13-.35-.13-.35l-.46-.4-.66-.36-1.21-.42-1.05-.38-1.03-.42-.63-.32-.62-.05-.59.04-.25.24-.07.32.02.28.37.4.37.15.27.28.04.32-.09.33-.1.3h-.57s-.74-.36-.74-.36l-.51-.3-.47-.33-.9-.71-.79-.62-.93-.73-.52-.37-.48-.29-.46-.36-.89-.48-.86-.21-1.85-.14h-.97l-1.41-.41-.97-.14-.62-.14-.56-.26-1.17-.56-1.59-.27-2.2-.25-.64-.2-.6-.33-.12-.43.02-.53.05-.38.33-.33.43-.12.55-.24.46-.67.04-.64.3-.38.36-.51.57-1.07.31-1.25.07-.69.1-1.06v-.9l.16-.96.27-.69.8-.64,1.01.11.63-.14.86-.73.8-.78.59-.45.37-.08.35.08.24.37.37.12.2.37-.53.49-1.04.35-1.33.65-.29.33.18.37.45.29.45.06.75-.08,2.35-.96.59-.31.61-.14.65.04.63.2.57.22.47.14.51.12.55-.27.18-.12.35.14v.35l.16.29.53.06.47-.22.37.04.1.22-.02.35-.08.35.1.31.31.08.29-.08.22-.37.04-.31.08-.27.59.14.45.08.22.33.29.35.55.31.65-.02.63-.16.35-.08.02-.2-.33-.06-.29-.43-.49-.39-.31.02-.1-.41-.04-.36-.44-.69-1.32-.29-1.08-.15-1.23-.1-.44-.1.05-.39-.02-.36-.25-.13-.4.27-.78.21-.61-.06-.29.13.02.59-.21.4-.38-.04-.36-.23-.19-.17-.02-.23.13-.15-.15-.31-.44-.25-.54-.17-.34-.19v-.17l.34-.04.38-.02.17-.15v-.29l-.34-.27-1.09-.69-1.03-1.21-.63-.9-.63-.78-.34-.57.25-.44.57-.25.48.21.54.13.65-.08.42-.44.23-.54.21-.46.78-.15.73.04.8.23,1.55.54,1.82.34,1.34.34,1.45.08,1.74.02,1.26.34,1.05.36.75.38.42.46.46.63.63.46.44.21h.27l.27-.29-.27-.15v-.48l.25-.19.31-.17-.29-.31-.54-.21-.13-.38.13-.21.92-.04.52-.06.19-.34v-.57l.02-.73-.15-.56-1.26-.06v-6.52l.23-1.37,5.21-3.32,4.75-2.97,3.34-2.09.97-.26.71-.06.09-.29-.06-.53.35-.68.21-.94-.15-1.53-.41-2.18-.71-2.06-.68-2.09-1.09-1.82-.79-.82-1.35-.68-1.21-.03-1.6.57-2.02.83-2.14.36-1.55.6-1.55.24-1.43-.6-.95-1.31v-1.07l.34-1.43-1.11-.22-.94-.22-.61-.83-.94-.33-.66-1-.55-.83-.44-.55-.88.11-.06.72.61.83.83.72v1l-.77.77-1.11.39-1.44-.94-.75-1.07-1.14-1.8-1.1-1.94-.88-.62-1.14-.09-1.63-.22-.97-.4-.18-.7-.97-.84-1.01-.13-.44.66-1.1.09-.44-.57-.35-.4.4-.66.97-.53v-.57l-.53-.35-.53-.26-.97.31-1.36,1.19-1.06,1.01-.79-.04-1.32-.53-3.65-.31-4.44-.44-3.43-.09-5.46.57-5.59,1.41-3.34,1.14-3.04,1.63-2.41,1.69-1.04.68-.74.47-.56.58-.28.26-.24.04-.2-.12-.11-.03-.08.03-.11.22-.1.26-.31.4-.85.67-.59,1.42-.25.7-.22.65-.19.37-.31,1.23-.28.61-.04.31.03.32.16.27.21.28.11.26-.1.13-.02.19.3.22.6.27.24.21v.52s-.14.4-.14.4l-.37.45-.34.31-.04.13v.46s.18.25.18.25l.13.24-.04.31-.18.19-.03.13.15.21.21.19.1.08v.12l-.28.32-.41.97-.13.26.04.4.4.32.59.55.82.58.16.13.11.18-.05.23-.24.17-.29.25v.73s.18.64.18.64l.22.47.53.29.87.11h.58l.3-.06.22-.34.27-.24h.25s.24.04.24.04l.29.33.14.37.25.11.27.08.21.3.22.29.49.26.4.39.17.25v.27l-.13.22-.4.29-.43.13-.35.22-.3.38-.37.7-.19,1.55-.2,1.6-.02.51-.1.23h-.11l-.08-.06-.05-.24-.16-.16-.2-.22-.25-.09-.4-.07h-.45s-.46.18-.46.18l-.64.35-.34.34-.13.24v.47s.02,1.27.02,1.27l.22.99.19.47.26.56.26.26.68.25.57.23.34.2.22.36.25.37.31.36.12.22-.03.23.1.38.5.75.19,1.3.19,1.45.31,1.26.75.99.23.44.37.54.68,1.28.39.99.23.41.52.19.25.62.06.35v.48l.46,1.03.23.62-.1.48-.93.75-1.32.54-.77.66-.37.56-.02.99-.31.68-1.03,1.12-.25.33-.14.74.14.6.68.7.48.52.12.46v.37l-.62.79-1.28,1.3-2.09.74-1.18.46-.7.33-.19,1.41-.5.75-.33.29-.64-.27-2.81-.58-2.94-.35-1.92-.31-1.7-.79-1.26-1.12-.52-.41-.04-.64-.25-.46-.72-1.14-.35-1.51-.64-1.72-.23-.64-.02-.56.02-.41v-.37l-.41-.44-1.86-2.26-.37-.81v-.48l.23-.39.15-.52.04-.97-.14-.43-.12-.33-.06-.37.25-.33.08-.56-.19-.23-.35-.6-.02-.54.27-.56.93-.87,1.2-1.35.37-.75.37-1.14.15-.91.06-.97-.25-.81-.33-.29-.15-.35-.06-.29-.62-.17-.54-.12-.25.06-.29-.1-.14-.23-.29-.12-.44.12-.39-.15-2.57-1.37-.91-.23-.46-.1-.21-.44-.02-.5-.31-.46-.23-.5-.04-.35.08-.17.12-.14-.1-.33-.04-.29-.15-2.61.04-2.17-.12-.56-.48-.62-.43-.54-.04-.52.29-.6.43-.52-.02-1.55-.43-1.49-.43-3-.44-1.95-.56-1.33-.43-.7-.99-1.01-1.53-1.3-.08-.21h-.44l-.27.08v.23l-.21.06v.17h.19l.17-.02.04.25-.02.31-.5-.02-.77-.04-.35-.15-.27-.23-.54-.33-.39-.1-.37.06-.12.31-.21.08-.19-.02v-.27l.21-.29-.02-.31-.12-.31-.43-.19-.33-.12-.31.19-.06.23-.39.02-.5.02-.39.02-.23-.15-.04-.35.33-.52.31-.33.27-.15.02-.29-.17-.23-1.08-.04h-.85l-.83.23-.89.6-.87.89-.99.83-.58.52-.19.7-.23.46-.74.64-.77.44-1.41.14-1.33-.02h-1.2s-.43.32-.43.32l-.65.64-.72.35-.81.1-.77-.15-.49-.31-.59-.29-.31-.35-.08-.57-.34-.08-.25-.19-.4-.87-.66-1.01-.54-.35-1.96-.75-.39-.27-1.14-.5-1.36-.38-1.88-.79-1.1-.41-1.36-.48-.34-.4-.19-.63-.26-1.51-.2-.65-1.41-1.44-.49-.48-.27-.26-.24-.15-.13-.19-.09-.42-.28-.22-.2-.35-.13-.65-.05-.82-.26-.37-.85-.73-.69-.37-.77-.4-.52-.13-.37-.29-.14-.29-.03-.48-.13-.32-.27-.28-.5-.39-.5-.16-.45-.22-.16-.25-.29-.51-.2-.59-.08-.84-.13-.19-.28-.14-.43-.12-.35-.05-.35-.13-.19-.06-.06-.61.08-.4.13-.23.07-.12.02-.39-.04-.31-.25-.24-.11-.1-.55-.04h-.35l-.24.24-.22.08-.24-.03-.09-.21-.08-.34-.05-.26-.15-.28-.08-.08-.55-.06-.41-.3-.18-.23-.04-.44.08-.26.19-.25.22-.13.15-.21.27-.06.24-.13.08-.16.16.16.03.23.08.2.61.02.26-.05.08-.14.3-.11.19-.02.08-.24v-.27l-.07-.15-.16-.09-.05-.13v-1.15l.04-.41.13-.22.24-.24.15-.16.03-.52v-.28s.18-.12.18-.12l.29.02.29.06.31.13.43.13,1.13-.05.82-.41.24-.29.08-.28.12-.41.08-.4.13-.28.39-.19.61-.16.76-.33,1.19-.93,1.09-1.29.44-.73.25-.76.23-.67.16-.56.04-.68-.06-.34-.26-.31-.39-.34-.35-.29-.19-.18-.04-.15v-.18l.03-.18.04-.5.08-.19.08-.12v-.16l-.12-.08-.03-.22v-.21s.32-.11.32-.11l.4-.03.5-.15.3-.36.21-.34.09-.43.03-.51-.07-.55-.08-.24-.07-.23-.05-.41v-.35s.09-.29.09-.29l.26-.29.4-.19.45-.29.38-.17.65-.46.33-.27.22-.34.02-.34.11-.2.19-.22.4-.04.55-.26.21-.24.09-.24v-.21l-.08-.17-.13-.04-.15-.13v-.27l.12-.19.29-.28.67-.76.29-.37.11-.4v-.26s-.03-.36-.03-.36l.04-.18.2-.18.2-.18.19-.18.08-.19v-.15l-.03-.14-.13-.1-.15-.07v-.09s-.13-.06-.13-.06l-.17-.07-.34-.02h-.18l-.09.08-.02.32-.03.4-.13.35-.12.12h-.16s-.25.02-.25.02l-.43.25-.3.25-.39.09-.19.19h-.17l-.09-.21-.19-.33-.15-.18h-.35l-.41-.14-.28-.09-.1-.08v-.2l.05-.15.21-.19.23-.1.51-.31.5-.25.23-.2.08-.26v-.27l-.2-.29-.14-.18-.37-.31-.34-.11-.26-.07-.2-.17-.18-.37-.35-.38-.71-.16-.55-.06-.79-.13-.36-.14-.31-.25-.47-.22-.4-.08-.22.07-.35.25-.36.06-.36-.16-.34-.35-.5-.27-.45-.11-1.37-.22-.36-.06-.54.08-.73.34-1.05.19-.31.14-.24.09h-.35s-.19-.11-.19-.11l-.21-.08-1.05-.04-.96.02-.28.07-.27.14-.13.03-.3-.03-.22-.09-.32-.02-.64.03-1.01.21-.91.31-.77.13-.31.27-.3.22-.44.09-1.46.2-.4.08-.6.22-.25.25-.27.07-.14.1-.06.14.07.23.03.15-.03.11-.16-.03-.15-.14-.31-.03-1.32-.04-2.2.03-.99.08-1.06.51-.74.13-.4.19-.31-.03-.21-.1-.16.07-.11.16.09.25.04.24-.2.36-.54.6-.71.54-.57.31-.73.21-.85.06-.71.1-.42.41-.5.44-.56.14-.53.02-.42-.14-.44-.52-1.04-.76-.37-.35-.17-.05-.15.02-.09.34-.04.43-.03.37-.09.17h-.23l-.16-.09-.16-.17-.11-.24-.06-.16-.14-.08h-.13s-.14.07-.14.07l-.12.1-.17.03-.51-.03-.51.03-.57.11-.39.17-.79.81-1.26.89-.96.74-.75.6-.78.43-.76.2-.73.1-.61.04h-1.09l-.47-.04-.29-.06-.43-.11-.98-.39-.23-.29-.13-.39.1-.52.4-.47.22-.27.28-.31.25-.33.11-.27.03-.36-.2-.42-.5-.39-.16-.25v-.16l.13-.22.19-.11.22-.08-.02-.2v-.17l-.2-.22-.31-.17-.39-.27-.17-.13-.11-.39v-.38l-.14-.3-.35-.14-.46-.11-.75-.14-.22-.17-.2-.17-.08-.3-.05-.47-.06-.14-.28-.17-.53-.11-.3-.03-.55.03-1.18.03-.51-.06-.82-.21-.61-.04-.77-.27-.51-.3-.35-.25-.08-.13v-.19s.01-.14.01-.14l.06-.15.1-.13-.06-.47-.1-.21-.57-.32-.58-.13-.92-.09h-2.91s-.42-.03-.42-.03l-.3.08-.38.38-.37.45-.41.41-.29.61-.24.55-.12.64v.72l-.05.39-.29.49-.39.64-.24.83-.18.51-.11.76-.11.51-.04.79-.08.89-.05.66-.24.61-.28.53-.55.39-.66.57-1.09.82-.93.84-.88.45-1.36.3-.9.17-.69.3-.69.59-.4.74.05.84.5.54.1.99-.59.89-.5.59-.05.64.5.3.1.94v1.54l-.25.4-.2.5.05,1.54v1.58l.2.59v.59l-.45.1-.05,1.04v.99l.59,1.83.3,3.17.15.89,1.14,1.14.35,1.04.45,1.04,1.19,1.34,1.04,2.82.69,1.63.3.79.79.5v.89l-.25.5.25.64,1.34,2.08.84,1.88,3.12,4.31.35,2.48.99,1.98.89,1.39,1.58,1.24,1.44,3.02,1.29,2.38,1.04,2.28.59,2.53.5,2.23.64,2.13-.1,1.83-.05,2.03-.4.79-.45-.35-.89-.4-1.58-.2-.89-.15h-1.24l-.64-.15.84-.45h1.29l1.09-.15.59-.3.2-.54-.35-.59-.54-.99-.1-.84.3-.69v-.84l-.5-.64-.35-.79-.45-.84-.64-.99-.3-.89-.64-.25h-1.19l-1.49.05-1.54.4-1.44.4-.94.89.84,1.24,1.34,1.34,1.19.89.25,1.44-.84,1.29-1.73,1.73-3.77,3.67-1.22,1.72-1,1.82-.79,1.64-.32,1.39.46,1.36.57,1.25.93,1.32.46.25.82.11,1.61-.14.82.36,1.14.75.75.18.43.32-.18.5-.57.39-1.57.54-.72.29-.04.82.14.68.57.43,1.43.89,1.5.79.82.64.32.89.5-.14.11-.29.43-.71.97-.34,1.56.23,2.42.43,1.39.23,1.15.82.37.55.45.09.45.16.47-.05.44-.37.27-.42.52-.53.47-.33.87-.03,1.17.14.72.12.91.34.5.22.81.37.58.17.2.5-.14.3-.45.52-.43.05-.45-.36-.56-.36-.32-.2-.49-.04h-.41s-.43-.08-.43-.08l-.39.03-.32.16-.75.36-.52.49v.33s-.24.08-.24.08h-.12s-.17.23-.17.23l.31.39.33.19.73-.45.43-.11.32.03.08.19-.08.16h-.28l-.21.03-.19.39.04.13-.12.89-.04.15-.05.17-.07.24-.04.24-.02.32-.15.67-.36-.07-.36-.12-.4-.16-.35.13-.25.34-.25.2-.69.59-.28.18-.2.32v.16s.16.16.16.16l.22.03.26-.18.26-.32.34-.26.39-.22,1.34-.58.46-.07.54.15.37.22.5-.02.37.15.15.41-.13.19-.32.17-.4-.11-.32-.19-.23-.17-.34-.02-.74.17-.38-.06-.51.25-.38.15-.27.21v.32l-.08.38-.06.42.13.23.21.21.57.06.29.19-.13.36-.34.04h-.51l-.36-.11-.17-.04-.15-.13-.23.23-.17.23-.21.27-.25.34-.06.51.13.55.48.23,1.12.36.74.04.81.14.04,1.16-.07.42.18.6.32.11h.32l.53.25.42.11.46.18.74-.53,1.16-.53.39-.32.78-.53.32-.49.35-.95.21-1.02.14-1.16.65-.69.44-.96.83-.6.75-.36.96-.49.96-.88.6-.52.57-.75,3.14-1.07,1.87-.55,1.01-.31h1.09l.7-.05.57-.26.23-.34.78-.16.86.1.75-.18.98-.18.33.17.27.33.12.15.48.08.35.17h.29l.48.04.42.02.17-.13.33-.04.04.19.02.23.17.08.23-.02.19.1.04.38.17.06.1.15.04.21-.06.33-.04.17v.52l.23.31.52.25.73.27,1.36.15.75.13.19.1.13.15-.1.33-.06.25v.29l-.08.27-.19.19-.06.17.02.36.17.31.19.06.59.35.42.35.52.48.9.81.19.29.12.38v.42l-.02.58v.29l.1.44.08.35-.08.31-.19.25-.33.33-.61.77-.44.58-.17.42-.13.52-.1.31-.25.02-.29-.46-.42.44-.4.48-.12.63.21.33.19.73.29.59.15.33-.12.4-.31.17-.17.02-.1.23.02.27.06.86.33.52.44.54.5.29.36.31.02.48-.08.46.02.69.36.59.36.35.61.17.1.4-.38.79-.25.86-.38.29-.56.36-.44.13-.83.29-.4.23-.19.27v.35l.21.38.46.83.31,1.06-.02.92-.38.67-.19.17h-.29l-.21-.23.04-.29.04-.13v-.33l-.29-.46h-.33l-.23.19-.17.56v.38l.17.33.08.13-.02.27-.31.15-.27.13-.23.29-.13.46-.13.54.17.46.23.4-.24.48-.45.55-.14.84-.9,1.48-.6.99-.33.23-.43-.04-.14.16.04.16.62.02.37.02.14.25.31.39.16.45-.06.27-.27.06-.58.04-.16.27-.18.31.11.3.35.04.14.05.16-.12.19-.22.41-.27.33-.02.59.05.58.49.62.57.4.62.02.19-.07.08h-.17l-.34-.21-.27-.13-.32.21-.15.24-.2.26-.04.35.26-.06.19-.18.14-.23.18-.14.21.05.05.2.11.32.15.04.46-.33.26-.24.11-.21.13-.11,2.42.05,1.36-.02h.3s.4.1.4.1l.9.05.2.07.08.02.15.04.18.03.2.02.19-.02.16-.05.42-.21.18-.02.35-.05.81-.05.46.06.2.05.13.1.11.02.11.04.08-.15.26-.05.26.07.18.07.21.08.14.26.11.14.02.09-.02.19.04.17.07.14.22-.04.24.02h.16s.09,0,.09,0l.11.14.04.09v.08s.02.19.02.19l.03.11.09.1h.1s.14.04.14.04l.03.17-.1.12h-.38s-.25-.13-.25-.13l-.29-.24-.38-.16-.43-.2-.5.05-.34.22-.11.31.02.19.09.06.06.17.05.27v.26s-.04.15-.04.15l-.08.14-.08.11-.16.02-.24.03h-.12s-.19-.16-.19-.16l-.63-.05-.4.02-.36.11h-.21l-.22.05-.19.16-.1.22-.22.14-.63.03-.54-.14-.6.03-.44.27-.14.29v.68l.16,1.11.25.71.46,1.43.17.44.17.13.54-.08.24-.14.3.05.3.27v.19l-.1.29.11.51.4.6.36.67.25.27.58.87.26.24.19.19.07.17.16.04.14-.06h.13l.34.23.37.16.59.09.33.07.13.19.23-.13.07-.22.13-.07.11.16.06.24.24.03.24.16.13.22.14.16h.26l.49.29.42.04.63-.1.36-.08.24-.05.08-.15.13-.1h.28s.26.08.26.08l.85.67.95.73.8.47,1.33.41.77.3.94.66.46.71.1.29.04.43v.31s-.07.11-.07.11l-.11.14-.03.2.02.15.2.32.54.53.38.42,1.07.76.49.24.28.09.49.23.18.2.18.21.12.12.18.07.11.04.17.06.17.16.11.13.13.07.06.15.08.14.07.13.05.18v.08s-.04.08-.04.08l-.08.07-.1.02-.13-.04-.21-.07-.21-.07-.45-.06h-.13l-.34.06-.21.04-.17.11-.24.26-.09.22-.02.35.06.45.22.34.34.35.56.32.55.19.63.37.29.14.23.28.22.41v.28s-.07.14-.07.14l-.26.09-.48-.02-.14.09-.06.28.1.38.24.65.12.43.23.49.39.5.4.27.87.18.45.15.13.13.17.12.12.1.02.18-.03.18-.14.14-.18.08-.1.1-.07.1-.03.12.15.03.18-.13.2-.18.14-.25.15-.16.19-.02.23.15.87.6.73.29,1.21.42.55.3.61.3.61.54.38.3.18.36-.09.32-.21.21-.5.13-.18.05-.21.34v.16s.07.13.07.13l-.03.3-.07.07-.07.07-.05.04-.31.07-.38.05h-.29s-.18-.12-.18-.12l-.12-.1-.17-.09h-.26s-.19.03-.19.03h-.26s-.33-.01-.33-.01l-.23-.09-.24-.16-.14-.07h-.25l-.3.03h-.29l-.16.02-.1.11-.06.07-.05.14v.16s-.13.11-.13.11l-.1.1-.05.1v.18s-.06.14-.06.14l-.11.09-.17.06-.18.02-.43-.29-.22-.21-.16-.15-.27-.12-.19-.12-.06-.12-.06-.16-.04-.09-.07-.05-.12-.04-.08-.03-.12.02-.13.04h-.24s-.15.03-.15.03l-.11.05-.07.07-.04.12v.27s.06.14.06.14l.1.09.15.06.19.07.13.05.09.12.09.07.09.2.06.13.06.18.12.12.13.16v.15l-.09.09-.22-.05-.28-.2-.14-.24-.06-.14-.12-.14-.14-.09-.22-.08-.2-.26-.29-.26-.16-.1-.19-.04-.24.03-.14.03-.18.09-.14.11-.09.1-.08.07-.03.1v.09l.07.06.1.08.07.1.14.07.11.1.14.17.2.11.15.15.12.27.03.21.02.2.17.21.15.14h.17l.09.15.18.05.17-.09.11-.14.2-.03.29.02.24.12.11.15.21.26.24.27.18.27.21.21.06.32.08.29.29.08.5.23.56.24.46.49.26.35.06.5.2.58.02.5-.05.2h-.31l-.18-.08-.12-.64-.21-.56-.5-.64-.6-.19-.42-.17-.25-.36-.15-.36-.17-.4-.36-.33-.21-.3-.24-.04-.12.02-.08.2.03.35.06.24.21.18.32.33.1.25v.67s-.06.31-.06.31l-.07.15h-.26s-.19-.15-.19-.15l-.13-.2-.15-1.02-.07-.34-.03-.4-.11-.21-.18-.1-.12.04-.23.33-.19.21-.14.18-.02.11.14.36.17.47.17.21.1.19.02.33.06.19.13.07.07.08.05.11.03.18v.16l.06.17.09.12.13.04h.13s.07-.06.07-.06l.02-.09v-.13s.17-.22.17-.22l.33.02.18.25.27.49.09.36.33.4.4.49.16.2.16.13h.31l.29-.13.42-.16.2-.13.33-.09.36.02.2.36.07.38.2.25.22.09.25-.13.18-.29-.13-.36-.2-.13-.45-.22v-.42l.09-.31.4.04.38.2.25.36.22.27.27.16.47.09.13.45v.32s.1.39.1.39l.57.3.61.22.7.07.52.02h.35l.5-.04.59.02.11.48-.07.28-.24.07-.26-.04-.15-.11-.48-.02h-.35l-.17.11-.04.46.07.7.02.57.02.33-.13.15-.33-.02-.3-.17-.17-.44-.13-.33-.35-.33-.33-.13-.44-.17-.65-.63-.44-.39-.2-.48-.13-.24-.35-.11-.33-.07-.33-.09-.28-.02-.39.04-.24.13-.22.26-.41.22-.37.09-.28.11.07.28.28.15.28-.13.39-.17.52-.24h.46l.33.11.2.3-.04.26-.24.07-.3.17-.28.33-.24.09-.2.07-.44-.17-.44-.24-.57-.02-.5.02-.37.15-.26.3-.2.48v.44l.22.28.44.09.35-.02.48-.02.26.02.15.22v.33l-.15.26-.07.37.04.33.26.2.39.2.41-.02.22-.26.07-.33-.04-.26-.11-.35.26-.2.3.07.32.28.24.44.49.56.56.29.42.05.1.24-.34.05-.24-.05h-.69l-.1.29.32.29.73.12.27-.32.61-.07.24.29.56.02.51-.42.59-.71.64-.51h.68s.3.2.3.2l.38.38.6.16.19.46-.05.38.16.35.6.05.54.65.62.54.35.46.14.57.11.27.16.24.3.03.38-.19.43.11.05.41-.16.54h-.49l-.49-.08-.46-.19h-.22l-.08.33.11.41.7.7.73.33.47.19.17.17h.18l.07-.13.39-.06.29.17.07.24-.07.24-.22.22-.04.37.04.37h.39l.29-.11.57.11.4.26.24.09.28.18.17.24.4.22,1.6.75,3.5.99,2.37.63,2.54.86,2.19.69,2.09.68.35.13.27.09.26-.03.1-.21v-.2s-.05-.43-.05-.43l-.13-.16-.09-.14-.05-.29v-.29s.03-.48.03-.48l.12-.39.35-.55.42-.37.35-.39.43-.12.68-.1.29-.13.39-.22.39-.07.56-.04.52-.05.39-.13.2-.14.12-.4v-.47s0-.23,0-.23l-.09-.08h-.21l-.29.14-.64.43-.54.42-.2.2-.3.03-.23-.07-.09-.2-.04-.27.03-.14.05-.09.22-.08.26-.05.31-.22.4-.16.27-.16.27-.17.16-.2.35-.1.21-.04.09-.2v-.39s-.01-1.64-.01-1.64l.02-.77v-.27l-.05-.25-.14.02-.25.2-.12.12-.04.3-.02.18-.23.07-.27-.02-.25.05-.14.14-.21.05-.23.05-.04.34.12.14.12.18.18-.02.23-.07.29.05.12.32v.32l-.04.39-.12.12-.18.02-.2-.14-.11-.39-.16-.11h-.39l-.12.05-.12.07-.29.04-.23-.07-.16-.21v-.39l.11-.2-.32-.29-.25-.14-.43-.02-.18.12.04.3.16.37.23.32.18.41v.23l-.21.05-.52-.05-.73-.61-.48-.48-.16-.37-.2-.05-.32.09-.18.2-.14.3-.18.2-.18.02v-.75l.3-.2.27-.27-.11-.37.07-.5.16-.48.29-.34.39-.2.23-.09.23.11.04.25.07.36.16.29.39.14.77.05.64-.04.29-.05.11-.14-.24-.3-.11-.48-.27-.68-.29-.74-.22-.5-.13-.51-.1-.19-.11-.06h-.13s-.12.05-.12.05l-.08.2-.62.24-.8-.05-.57-.47-.19-.52v-.5l.11-.45.3-.39.27-.23.45-.11.41-.16.52-.2.39-.32.36-.23.2-.18.02-.2-.02-.16-.2-.11.11-.32.11-.25.14-.32.45-.48.27-.14.16-.25-.05-.25-.18-.07-.3.02-.16.16-.27-.09-.18-.25.02-.52.14-1.14.07-.7.09-1.57.02-2.16-.18-.64-.2-.61-.39-.68-.68-1.14-.2-.43-.05-.68v-.86l-.07-.75-.23-.34-.36-1.04-.07-.93-.02-1,.07-.98.18-1.04.54-.66.38-.56.87-1.13.97-.78.68-.49.33-.18.22-.18.11-.26v-.17s-.05-.16-.05-.16l-.17-.21-.14-.2-.08-.17.04-.27.31-.14.46-.14.53-.12.37-.06.24-.12.2-.14.26-.05.19-.09.19-.26-.16-.24.02-.33.02-.73.09-.45.31-.38.28-.52.24-.31.24-.05.28.16.12.31.05.45.07.54.26.28.61.28.35.26.19.31-.05.24-.21.12v.33l-.05.47-.02.31-.05.24.28.21.12.28-.02.35-.02.21.05.21.07.26.24.45.38.35.26.24.05.35v.4l.05.31.14.26.07.42.05.68.16.31h.28l.35.26.09.52.09.49.21.42.33.14.31.16.33.12.35.07.24.31.24.54.07,2.56.45,1.62.21.35.59.61.54,1.11.06.43v.48s-.1.09-.1.09l-.04.15.14.1v1.28l-.3.49-.03.85.26.46.56.43.59.49-.03.59-.76.66-.92.72-.36.76.2.95.49,1.02.36.99-.2.53-.26.3-1.33.96-1.24.96-1.79,1.2-1.2.65-.12,1.02.22.77.65.46.96.49.99.15.71-.03.74-.46.93-.28,1.02-.37.93-.09.96.28.74.43.87.87.22.96v.96l-.31.77-1.05.71-.83.22-1.36-.03-1.42.34-1.3.74-.71.62-.22.37v.56l.49.49.53.09.65.4.37.43.53.31.59.19,1.3-.19,1.3-.4,1.51-.53,1.36-.77,1.54-.68.99-.12.29.06.05.82-.03,1.31-.07.8-.05.99-.34.36-.36.19-.39.19-.1.31.03.53.24.51.48.44.2.42.07.56.07.8.39.9.41.9.41.71.51.31.56.12.71-.02.46-.12.53.02.29.14.24.37.51.36.59.42.97.03,1.34.58,1.87.85,1.38.42.7.25.02.42-.31.07-6.32-2.19-2.4-.58-.87-.36-1.21-.08-.66-.05-.31.27v.27l.42.03.54.08.31.39-.02.34-.17.2-.34.42-.25.39v.39l.2.15.44-.1.37-.36.65-.2.53-.05.88.32.76,1.07,1.19.9.97.9,1.9.34,2.36-.05,1.65.03.49.12.19.24.08.34.2.14.32-.05.24-.49.31-.32,1.41-.32,1.43-.46.51-.37.15-.29.25-.29.59-.19.65-.07.58-.2.36-.24.44-.66,1.89-.78,4.3-1.46,3.43-.97,1.94-.49,2.01-.71,1.1-.53,1.02-.66.75-.66.42-.46.37-.63.54-.48,1.1-.92,1.38-.73,3.4-1.92,2.84-.93,2.75-1.33,2.33-1.29,1.85-1.22,1.12-.82.92-.7,1.5-1.72,1.46-1.38,2.36-1.38,1.63-.65.99-.39,1.04-.15.53-.17.14-.19.02-.32-.39-.12-.37-.02-.14-.29.2-.22.49-.24.39-.32.48-.1h.34l.36-.51.36-.46.58.02.36.02.14-.32v-.27l-.54-.1-.32-.1-.03-.24-.27-.12-.42-.07-.05-.27.2-.31.41-.2.54-.03.63-.14.29-.31.44-.29.29-.14.68-.63.44-.39.14.15.15.32.24-.08v-.24l.19-.02.14.12.31.1.2.02.19-.24.1-.29.19-.12.42-.15.02-.17-.14-.14-.44-.02-.44.03-.44-.07-.05-.17-.15-.1-.46.02-.56.1-.7-.03-.37-.15-.15-.24-.02-.24.08-.27.05-.31v-.15l-.08-.22-.08-.15-.27-.07-.34.03-.32.03-.19.14-.12.29-.1.34-.07.36-.03.34-.24.27-.17.12-.2.03-.17.15-.12.46v.68l-.05.53-.2.44-.34.03-.37-.16-.43-.31-.44-.38-.08-.75.15-.9.45-2.09.28-1.42.21-.76.66-1.15.56-1.01.94-.63h.56l.69.24.42.38.31.31h.63l.07-.31.03-.35.56-.35.28-.1h.87l.45.03.38-.14-.35-.63-.52-.03-.24-.24.38-.1.49-.03.45.07.45.1.52.31.38.1.24-.1-.28-.49v-.52l.07-.42.49-.42,1.35-.28,1.04-.17.59.03.35.07.42.56.07.42-.49.87-.38-.03-.66-.24h-.35l-.35.59-.35.52h-.66l-.38.24.1.35.59.24.52-.07.42-.1.35-.45.49-.24.35-.03.69.24.28.14.38.03.28-.45.66-.14.66.07.66.1.38.28-.1.31-.24.03-.17.38-.38.21-.38-.07-.73-.1-.35-.35-.45.14-.35.42.45.21-.07.56h-.35l-.45-.45-.59.07-.24.52-.03.42v.56l.24.45.31.35.28.21.52-.17.17-.35.14-.42.14-.31.38-.35.31.03.28-.07h.83l.45.07-.03.49-.94.76-.24.35h-.76l-.24.42.14.49.73.42.56.07.38-.03.07-.31-.14-.42.07-.56.31-.63.73-.56,1.56-1.18.73-.73.56-.31.66-.28.97-.03.38-.03.28.14v.45l.35-.1.42.07.14.38-.21.38-.42.07-.28.1-.03.42.07.69.49.52h.45l.07-.45.45-.14.49.31-.03.49.24.45.35.66.56-.24-.1-.49-.28-.76.31-.24.45-.03.45.14.14.83v.28l.24.42.45.38.38.24h1.39l.76-.31.56-.35.52-.14.42-.07.24-.35.07-.24.45-.03h.24l.28-.1-.38-.49.66-.1.52.14.45.17.49.35h.59l.49-.1-.17-.45-.69-.35-.66-.03-.38-.28-.14-.31-.24-.45-.87-.45-.52-.03-.42.28-.45.24h-.59l-.66.28-.35.07-.69-.42-.69-.42.38-.38.42-.14.42-.31v-.31l-.45-.35-.38-.14-.14-.59.03-.45.45-.17.31-.31.24-.66.03-.45.2-.37.73-.4.89-.69.82-.4.8-.04.65.22,1.16.42.93.69.31.47.29.73-.09.71-.04.76.02.85.38.62.65.42.65.47.31.13h.22l.33-.22.36.02.38.04.02-.27-.65-.33-.24-.31-.27-.4-.31-.71-.33-.56-.16-.51v-.36l.31-.24.09-.38-.09-.4-.27-.22-.2-.11-.07-.24.24-.4.56-.73.51-.87.31-.51.67-.71.73-.71.76-.93.73-.87.51-.96.64-1.16,1.21-.81,1.25-.61,1.23-.48,1.23-.36,1.02-.81.66-.61.35-.5.23-.59.03-.33-.09-.24-.1-.29-.02-.24.05-.26.24-.24.31-.43.16-.48.03-.68v-.42l-.19-.31ZM53.22,82.18l-.27.76.23.8-.08.57h-1.07l-.46-.11.08-.76.49-1.26.08-.61.99-.11v.72Zm63.69,74.25l-1.04.07-1.37.85-.91.62-.33.29-.26.07-1.04-.52-.91-.23-.82.23-.98-.13-.65-.72-.13-.75.2-.65.2-.72-.03-.39-.39-.36.72-.42.29-.42.39-.03.72-.03.78-.33.39-.07.91-.03.52-.26.82-.69.65.36-.07.46.39.29.69.62.1.78.1.56.52.42.75.42.59.56-.78.16Zm51.69-28.29l.76.52.14.52-.95-.05-1.24-1.48-1.71-1.52-2.67-1.43-2.9-1.38-3.05-1.24-2.48-.81-2.09-.19h-1.52l-.05-.48,2.09-1.05,2.62-.24,2-.48,2.05-.57,2.19.14,1.62.29,1.05,1.14,1.29,1.86,1.38,1.29-.05,1,.29.86.9.52,1,.1.48.38-.38.57-.86.86.1.86Zm32.22,40.63v.87l-.32.32-.27.41-.14.55-.14,1.41-.18,1.82-.64,1.69-.32,1.09-.09,1.28v1.82l-.18.77.23.82.27,1-.05,1.05-.36,1.23-.46.41-.5.68-.23.96.27.87v.96l-.18.87-.64.96-.64.18-.77.05-.96-.64-.27-1-.64-.68-.91-.96-.82-.5-1.23-.87-.73-.18-.18-.82-.36-.91-.46-.68-.36-.59-.5-.05-.05-.82-.18-1.09-.36-.68-.5-.23-.32-.59-.41-2.64-1-2.05-.87-1.28-1.55-1.23-.68-1-.82-1.23-.91-.82v-.64l.36-.32-.14-.46-.23-.91.5-1.28.59-1.46-.05-1.05.36-.5.18-.77-.32-.36-.55-.09-.5.18.05-.55.59-.82.05-.73.32-.59.73-.36.73-.32.27-.55.32-.73.05-.73v-.82l-.05-.96-.14-.73-.5-.59-.77-.46-1-.5-1-.09-1.14.05-.59.14-.5.14-.64-.41-.27-.41-.23-.59-.5-.36-.46-.5-.23-.68-.09-.5.96-.05,1.55.36.96.05,1.55-.77,1-1.14.32-.73-.09-.68-.36-.59.5-.18,1.05-.32,1.28.23.36,1,.68,1.32.68.64,1.09.46,1.46.18,1.41.18,1.5.23.73.5.59.87.68,1.19.09.64.96.59.55.5v.68l-.68.09-.32.36.05.41.18.64-.59.55-.59.87-.09,1.19.36,1.32,1.46,2.23,1.19,1.05.55,1.23.5.77.36,1.19.41.46,1.41,1.14,1.05.46.46.05v.68Z"/>
    <polygon class="cls-2" points="46.81 24.19 48.28 23.36 49.43 21.63 51.02 19.71 53.9 17.61 56.9 16.71 57.99 16.65 59.9 15.88 62.46 16.07 64.18 16.59 65.91 17.74 66.1 18.95 65.78 20.48 64.69 21.5 63.41 22.59 63.67 23.23 64.5 24.82 64.88 27.06 64.88 29.36 64.69 31.98 64.37 34.09 63.8 35.49 62.78 37.28 62.52 38.68 63.1 40.09 64.5 40.98 66.29 42.07 66.67 42.52 65.91 42.96 64.82 43.35 64.31 43.99 64.95 44.24 66.54 44.43 68.08 44.62 68.78 44.82 69.23 45.39 69.61 46.09 70.18 47.37 71.53 47.56 72.61 47.94 73.76 48.52 74.97 49.41 76.25 51.01 77.85 52.86 78.42 53.95 78.68 54.84 78.87 56.18 79.96 57.33 82.38 59.19 83.72 60.14 85.19 60.34 87.05 60.59 88.77 61.23 90.43 61.87 91.84 62.51 92.54 63.46 93.11 64.87 93.94 66.15 95.35 67.04 96.75 67.87 98.73 69.21 100.14 69.85 101.54 69.92 103.01 70.43 103.59 70.75 104.35 71 105.76 70.75 107.74 69.72 109.4 68.83 111.06 68.83 113.62 69.47 114.45 70.36 115.15 71.77 115.47 73.62 116.43 76.11 117.58 78.41 118.34 79.69 118.79 80.77 120.45 81.99 122.3 82.88 124.66 83.52 126.96 84.61 128.37 85.82 128.75 87.86 128.11 89.08 127.16 90.61 125.94 92.08 124.98 93.61 123.58 94.7 122.88 95.34 122.24 96.74 121.79 98.02 120.9 99.87 120 101.15 118.92 102.36 118.53 103.38 118.92 104.92 119.55 106.32 121.02 107.98 123 109.26 124.73 110.47 126.39 111.49 126.45 112.07 125.3 112.39 124.86 112.9 124.92 114.11 125.62 114.82 127.54 114.94 129.84 115.45 131.56 116.09 133.61 116.28 136.22 115.84 140.25 115.39 142.36 115.2 144.14 115.52 144.85 115.58 145.55 114.56 147.53 112.84 149.89 111.94 152.51 111.43 155.19 112.32 161.96 114.62 165.99 115.96 167.2 116.73 166.69 117.5 165.6 117.63 163.69 117.94 161.58 117.94 159.15 117.88 156.98 117.94 154.55 118.07 152.32 117.75 151.43 118.46 150.34 119.48 150.08 119.99 149.64 120.69 149.89 121.39 151.04 121.9 153.02 122.29 154.75 122.54 155.83 123.37 156.92 124.4 158.77 124.78 161.13 125.1 163.69 126.12 165.99 128.23 168.41 129.51 170.14 130.65 172.44 131.23 173.72 131.61 175.38 132.25 176.33 133.15 176.97 133.72 177.16 134.61 177.16 135.51 176.78 136.4 176.97 137.3 177.74 137.87 177.87 138.45 178.76 138.7 179.85 138.83 181.51 139.47 181.83 140.68 181.83 141.7 180.55 141.96 178.83 141.77 177.23 141.07 175.95 140.43 174.23 140.43 173.27 140.81 171.67 140.17 170.33 138.57 169.18 137.23 167.97 136.98 166.24 137.81 165.16 139.09 164.07 140.62 162.79 142.6 162.16 144.39 162.35 146.37 163.24 147.71 164.65 148.92 165.8 150.39 166.82 151.92 168.22 152.82 169.82 153.71 171.61 154.86 173.27 155.95 175.5 156.84 176.53 157.03 178.06 157.54 178.76 158.37 179.02 159.46 178.44 162.33 177.93 163.67 177.48 164.82 177.36 165.65 177.55 166.61 178.06 167.25 178.06 168.21 177.48 169.23 177.29 170.38 177.87 171.72 178.51 173.06 179.53 174.79 180.93 175.62 181.95 177.15 182.53 178.36 182.78 180.22 182.78 182.01 182.91 183.54 183.55 184.88 185.08 186.6 186.81 188.2 188.53 189.54 191.22 192.03 192.62 192.93 193.32 193.82 193.77 194.52 194.54 194.84 195.94 195.35 196.84 195.86 197.03 196.76 197.47 197.72 198.37 198.04 199.39 198.04 200.03 198.42 200.09 199.44 199.84 200.27 198.94 200.46 198.24 200.4 197.86 201.42 197.92 202 196.58 202.95 195.43 204.17 194.98 204.81 194.15 205.38 193.07 205.13 192.11 205.19 191.6 205.19 191.09 205.96 191.22 206.85 191.66 207.68 191.98 208.7 191.98 209.47 191.6 210.17 191.6 210.75 191.66 211.83 191.02 212.85 189.62 213.62 188.09 213.75 186.49 213.3 185.34 213.24 184.38 213.3 183.62 214 183.36 214.96 182.72 215.54 181.7 215.54 180.61 215.28 179.08 214.96 178.31 215.41 178.06 216.37 177.1 217.26 175.5 217.52 174.16 217.64 173.14 217.71 172.76 218.22 171.86 220.13 171.48 221.09 170.78 221.6 169.12 221.67 168.03 222.05 166.82 222.75 166.05 222.94 165.22 223.07 164.39 223.58 162.86 224.41 161.9 224.48 159.6 224.41 158.07 224.35 157.17 223.97 155.83 223.26 155.26 222.31 155.13 220.84 155.19 219.24 155.77 217.32 156.53 216.17 157.49 215.73 159.35 215.47 162.16 215.34 164.14 215.09 165.35 215.09 165.92 214.71 166.18 214.13 165.54 213.43 164.71 213.11 162.35 212.98 159.35 212.79 156.92 212.73 155.7 212.28 156.22 211.64 157.3 211.19 157.62 210.49 157.43 209.72 156.73 209.02 156.09 208.57 156.09 207.81 156.92 207.17 158.07 206.79 159.41 206.53 160.56 205.96 160.56 205.32 159.6 204.81 158 204.36 156.22 203.85 155.32 203.34 153.85 202.7 152.45 203.08 150.91 202.95 149.06 202.76 147.34 202.7 145.8 202.32 144.21 201.23 143.7 200.4 144.14 199.76 144.59 199.57 144.97 198.93 144.85 198.36 144.14 197.72 142.99 197.4 141.53 196.95 140.5 196.18 140.12 195.23 139.99 194.01 140.44 193.05 140.38 191.65 139.87 190.31 139.29 189.73 138.97 188.78 137.89 186.86 136.54 184.88 134.88 182.71 132.33 178.68 131.37 175.94 130.73 174.21 130.35 172.55 129.26 171.59 126.9 171.15 124.54 171.21 122.94 170.76 121.66 167.89 120.77 165.21 120.19 162.33 120.26 160.48 120.51 159.33 121.22 158.63 121.53 157.8 121.15 156.78 120.45 155.56 118.98 155.5 118.15 153.78 117.26 153.01 116.36 151.99 116.23 150.84 116.74 150.26 117.58 149.62 118.79 149.05 119.68 147.01 119.87 145.22 119.43 143.49 118.6 142.09 117.64 140.75 116.11 139.47 114.64 138.77 112.34 138.13 110.61 137.55 108.76 137.11 107.16 137.17 105.89 137.62 101.67 140.17 100.2 141.38 99.56 142.6 98.93 144 97.58 145.03 96.18 145.73 95.41 146.69 94.84 147.77 94.58 148.86 93.69 150.13 92.47 151.54 91.96 152.82 90.49 154.09 89.86 155.12 89.03 156.2 88.51 157.74 88.07 159.01 87.24 159.71 86.09 160.61 84.55 160.35 83.34 159.65 82.32 158.69 80.91 158.18 79.83 157.74 79.83 157.1 80.47 156.33 80.6 155.56 79.64 154.29 78.68 153.26 77.08 153.26 76.12 153.01 74.78 151.67 74.78 150.07 75.17 149.43 74.72 148.41 74.66 147.2 74.59 144.45 74.46 142.79 73.51 140.36 73.95 139.53 73.7 138.57 73.44 136.91 73.83 135.25 73.7 133.72 73.89 132.51 74.21 130.97 74.78 129.31 73.89 127.21 72.68 124.71 71.78 121.97 70.25 118.46 70.06 116.48 69.16 115.52 67.44 114.69 66.16 114.43 65.84 113.67 65.39 112.58 63.67 111.81 58.43 109.13 58.62 108.56 59.97 108.75 63.48 108.75 63.67 108.17 62.26 107.66 60.99 106.7 60.03 105.87 59.9 104.28 59.9 102.49 60.28 100.64 59.71 99.36 58.5 97.32 56.96 95.72 55.24 93.74 54.79 91.38 54.86 89.33 55.37 88.31 56.77 86.71 57.22 85.5 56.77 84.35 56.2 82.5 55.11 81.41 53.58 80.9 51.92 80.45 51.73 79.69 50.58 79.5 49.3 79.69 48.21 79.5 47.32 78.79 46.43 78.73 45.79 79.56 44.96 80.58 44.32 80.2 43.93 78.86 43.23 75.98 42.27 74.13 41.44 72.09 40.04 70.68 38.31 69.72 37.36 68.96 37.1 67.42 37.48 65.06 36.91 63.78 36.59 62.19 35.89 61.61 34.99 60.72 35.06 59.25 35.95 58.55 36.33 57.65 36.01 56.38 36.08 54.71 36.33 52.99 35.95 50.44 35.31 48.65 35.06 46.54 35.12 44.82 35.95 43.54 37.04 42.39 37.87 41.49 38.12 40.41 38.95 39.71 40.17 39.07 40.93 38.62 41.7 37.53 42.15 36.45 42.98 35.36 43.81 33.83 44.64 31.91 44.45 30.19 44.13 28.85 44.45 27.83 46.81 24.19"/>
  </g>
</svg>