<?xml version="1.0" encoding="UTF-8"?>
<svg id="Layer_2" data-name="Layer 2" xmlns="http://www.w3.org/2000/svg" viewBox="0 0 247.84 241.86">
  <defs>
    <style>
      .cls-1 {
        fill: #0a2638;
      }

      .cls-2 {
        fill: #365d31;
      }
    </style>
  </defs>
  <g id="Layer_1-2" data-name="Layer 1">
    <path class="cls-2" d="m247.67,186.02l-.14-.51-.04-.23v-.21s.1-.22.1-.22l.02-.59-.27-.71-.31-.32-.33-.51-.47-.17-.28-.02-.3.41-.32.33-.2.09-.72-.19-.38-.29-.31-.26-.25-.19-.24-.05-.21.04-.2.16-.52-.03-.39-.1-.37-.2-.49-.8-.69-1.38-.19-1.02-.08-.68-.02-.42.04-.34.12-.18.15-.23.16-.32v-.24s-.1-.28-.1-.28l-.54-.52-1.82-2.08-.72-.46-1.02-.34-.31-.11-.03-.12.23-.12.03-.22-.28-.3-.16-.13h-.38s-.54.34-.54.34l-.69.27-.49.12-.72-.06h-.19s-.14-.21-.14-.21l-.06-.44-.19-.2h-.19s-.27-.1-.27-.1v-.21s.17-.08.17-.08l.19-.02v-.21s-.24-.43-.24-.43l-.39-.39-1.21-.37-1.37-.37-1.13-.63-.22-.47-.36-2.02-3.38-1.83-3.97-1.82-3.07-.94-2.9-1.14-1.51-.4-.9-.11-.35-.09-.12-.29-.46-.03-.38.35-.46-.03-.26-.07-.29-.46-.31-.06-.45.34-.6.3-.35-.06-.15-.4-.03-.64-.15-.97-.36-.64-.33-.41-.83-.64-.58-.6-.44-.36-.73-.24-.32-.27-.23-.33-.18-.51-.03-1.68-.25-1.61-.45-1.8-1.27-2.28-.32-1.27-.24-.8-.29-.33v-.38s.23-.09.23-.09l.39-.18.03-.45-.15-.25.51-.16.4-.39v-.49s-.16-.15-.16-.15l-.46.37-.59.41-.39.18h-.6s-.26-.22-.26-.22l-.41-.43-1.57-1.02-1.18-1.06-.41-.52-.61-.29-.6-.28-.29-.02-.04.48.06.27-.28.04-.48-.16-.41-.23-.14-.21v-.13s.32-.16.32-.16l.14-.28.31-.5.32-.81.07-.76-.02-.48-.12-.47-.1-1.24.28-1.65.52-.96.77-1.4.43-.41.72-.38.84-.36.95-.28,1.14-.32,1.58-.49,1.09-.48.88-.4.51-.51.32-.91.16-1.08.24-1.88.1-1.3-.22-.33-.27.22-.16.97-.27.66-.22,1.13-.34,1.16-.32.67-.5.48-.43.03-.55-.21-.52-.37-.37-.09-.41.09-.3-.04-.27-.13-.79-.06-.37-.05-.1-.07v-.11s.33-.08.33-.08l1.1.05.66.04.54.22.36.25.38.18h.62s.15-.15.15-.15l.07-.49.04-.39-.12-.36-.43-.42-.63-.4-1.18-.5-1.02-.45-1-.49-.61-.36-.61-.09h-.59s-.26.22-.26.22l-.09.32v.29s.35.42.35.42l.36.17.25.3.02.32-.11.33-.12.29-.57-.05-.72-.39-.49-.33-.45-.36-.86-.76-.75-.67-.88-.79-.5-.4-.46-.32-.43-.39-.86-.54-.84-.27-1.83-.26-.97-.06-1.38-.5-.96-.2-.61-.18-.54-.3-1.13-.63-1.57-.38-2.17-.39-.63-.24-.57-.37-.1-.44.06-.53.07-.38.36-.31.44-.1.56-.2.5-.64.08-.64.32-.36.39-.48.64-1.03.39-1.23.12-.69.17-1.05.06-.9.22-.94.31-.67.84-.58,1,.17.64-.1.9-.68.84-.72.62-.41.37-.06.34.1.22.38.36.15.18.38-.56.45-1.06.28-1.37.57-.31.31.16.38.43.31.44.09.76-.03,2.4-.8.61-.27.62-.1.65.08.62.24.56.26.46.17.5.16.57-.23.19-.11.34.17-.02.35.14.3.53.1.48-.19.36.06.09.23-.04.34-.1.34.08.31.3.1.29-.06.25-.35.06-.3.1-.26.58.18.44.11.2.34.26.36.53.34.65.02.64-.12.35-.06.03-.2-.32-.08-.26-.45-.46-.42h-.31s-.08-.41-.08-.41l-.02-.36-.4-.71-1.3-.38-1.07-.22-1.22-.18-.43-.13.07-.39v-.36s-.24-.14-.24-.14l-.41.25-.79.16-.6-.1-.3.11-.02.59-.23.38-.37-.07-.34-.25-.18-.18v-.23s.13-.14.13-.14l-.13-.32-.42-.28-.53-.2-.32-.21v-.17s.35-.02.35-.02h.38s.18-.13.18-.13l.02-.29-.32-.29-1.04-.76-.95-1.28-.57-.94-.58-.81-.3-.59.28-.42.58-.21.47.24.54.16.65-.04.45-.41.27-.53.24-.45.78-.1.73.09.78.28,1.51.64,1.8.45,1.32.42,1.44.18,1.73.13,1.23.42,1.02.42.73.43.39.49.42.66.6.5.43.24.27.02.29-.27-.26-.16.03-.48.26-.17.32-.15-.27-.33-.53-.24-.1-.38.14-.2.92.02.53-.03.21-.32.04-.56.07-.73-.11-.57-1.25-.14.42-6.51.32-1.36,5.41-2.97,4.93-2.66,3.47-1.87.99-.2h.71s.11-.3.11-.3l-.02-.53.4-.65.27-.93-.05-1.54-.27-2.2-.57-2.1-.54-2.13-.97-1.89-.74-.87-1.31-.76-1.2-.11-1.64.46-2.07.7-2.16.22-1.58.49-1.56.14-1.39-.69-.87-1.37.07-1.07.43-1.4-1.09-.29-.92-.28-.55-.87-.92-.39-.6-1.04-.5-.86-.41-.58-.89.05-.1.71.55.87.78.77-.06.99-.82.72-1.13.31-1.37-1.03-.68-1.12-1.02-1.87-.97-2-.84-.67-1.14-.16-1.61-.33-.94-.46-.13-.71-.91-.9-1-.2-.48.63-1.1.02-.4-.6-.33-.42.44-.63,1-.46.04-.57-.5-.39-.51-.3-.99.24-1.44,1.1-1.12.94-.79-.1-1.28-.61-3.62-.54-4.41-.73-3.42-.31-5.48.22-5.67,1.04-3.41.92-3.14,1.43-2.51,1.53-1.08.61-.77.42-.59.54-.3.24-.24.03-.2-.13-.11-.04-.08.02-.12.22-.12.25-.33.38-.89.61-.68,1.38-.29.68-.26.64-.22.36-.39,1.21-.32.59-.06.3v.32s.15.28.15.28l.19.29.1.27-.11.13-.03.19.28.24.58.31.23.22-.03.52-.18.39-.4.42-.36.29-.05.12-.02.46.16.27.11.25-.06.3-.19.18-.04.13.14.22.2.2.09.09v.12s-.31.3-.31.3l-.47.94-.14.25v.41s.39.35.39.35l.55.59.78.64.16.14.1.19-.07.23-.25.16-.31.24-.06.72.15.65.19.49.51.33.86.17.58.04.3-.04.25-.32.28-.22h.25s.24.08.24.08l.27.35.12.38.25.13.26.1.19.31.2.31.48.29.38.42.16.26-.02.27-.14.22-.42.27-.43.1-.37.19-.32.36-.42.67-.3,1.54-.31,1.59-.06.51-.12.22h-.11s-.08-.07-.08-.07l-.04-.24-.15-.17-.19-.24-.25-.11-.39-.1h-.45s-.47.12-.47.12l-.67.31-.37.32-.14.23-.05.47-.05,1.27.16,1,.16.48.23.58.24.28.66.3.55.27.32.22.2.37.22.38.28.38.11.23-.05.23.08.38.45.79.11,1.31.1,1.46.23,1.27.69,1.03.2.46.33.56.59,1.32.32,1.01.21.42.51.23.21.63.04.35-.03.48.4,1.05.19.63-.13.48-.98.69-1.35.45-.81.61-.4.54-.08.98-.35.66-1.1,1.05-.27.31-.18.72.1.61.63.74.45.55.09.47-.02.37-.67.75-1.36,1.21-2.13.6-1.21.39-.72.28-.28,1.4-.55.72-.35.27-.62-.31-2.76-.76-2.91-.54-1.89-.43-1.65-.9-1.18-1.2-.49-.44v-.64s-.22-.48-.22-.48l-.64-1.19-.25-1.53-.53-1.76-.19-.65.02-.56.05-.4.02-.37-.38-.47-1.71-2.38-.31-.83.03-.48.26-.37.19-.51.1-.96-.11-.43-.09-.34-.03-.37.27-.31.11-.55-.18-.24-.31-.62.02-.54.31-.54.98-.81,1.29-1.27.42-.73.44-1.12.21-.9.12-.96-.2-.83-.31-.31-.13-.36-.04-.29-.61-.21-.53-.15-.25.04-.28-.12-.12-.24-.28-.13-.45.09-.38-.18-2.48-1.54-.89-.29-.46-.13-.18-.46v-.5s-.27-.48-.27-.48l-.2-.52-.02-.35.09-.17.12-.13-.08-.33-.02-.29.02-2.62.18-2.16-.08-.57-.44-.65-.39-.57v-.52s.32-.58.32-.58l.46-.49.08-1.55-.33-1.51-.23-3.02-.32-1.98-.47-1.37-.38-.72-.92-1.07-1.44-1.39-.06-.22-.44-.03-.28.06-.02.23-.22.04v.17s.18.01.18.01h.17s.02.25.02.25l-.04.31-.5-.05-.77-.09-.34-.18-.26-.25-.52-.36-.38-.12-.37.03-.14.3-.22.06-.19-.03.02-.27.23-.28v-.31s-.09-.32-.09-.32l-.41-.22-.32-.14-.32.17-.07.23h-.39s-.5-.02-.5-.02h-.39s-.22-.18-.22-.18l-.02-.35.36-.5.33-.31.28-.14.04-.29-.16-.24-1.08-.11-.85-.06-.85.18-.93.54-.93.83-1.04.77-.61.48-.24.68-.26.45-.78.59-.8.39-1.42.04-1.33-.11-1.2-.07-.45.27-.69.6-.75.31-.81.05-.76-.2-.47-.34-.57-.32-.29-.37-.05-.58-.33-.11-.24-.21-.35-.89-.6-1.05-.51-.39-1.91-.88-.37-.29-1.11-.58-1.33-.47-1.82-.91-1.07-.48-1.33-.57-.31-.43-.15-.64-.16-1.52-.16-.66-1.32-1.53-.46-.51-.25-.28-.23-.17-.11-.2-.07-.43-.26-.24-.18-.36-.09-.66v-.82s-.23-.39-.23-.39l-.8-.79-.66-.41-.74-.44-.51-.16-.35-.31-.12-.3v-.48s-.11-.33-.11-.33l-.25-.29-.47-.42-.49-.19-.43-.25-.14-.26-.25-.53-.16-.6-.03-.85-.12-.2-.27-.16-.42-.15-.35-.07-.34-.16-.18-.07-.02-.61.1-.4.15-.22.07-.11.04-.39-.02-.31-.24-.25-.1-.11-.54-.08-.35-.02-.25.23-.22.06-.24-.04-.08-.22-.05-.34-.03-.26-.13-.29-.08-.09-.54-.09-.39-.33-.16-.24v-.44s.08-.26.08-.26l.2-.24.23-.12.16-.2.27-.04.25-.11.09-.15.15.17.02.23.06.21.61.06.26-.03.09-.14.31-.09h.19s.09-.24.09-.24l.02-.27-.06-.16-.15-.1-.04-.14.07-1.15.07-.41.14-.21.26-.22.16-.15.06-.52.03-.28.18-.11.28.04.29.08.3.15.42.15,1.13.02.85-.36.26-.28.09-.27.14-.4.1-.39.15-.27.4-.16.62-.12.78-.28,1.24-.85,1.18-1.21.48-.7.3-.74.27-.66.2-.54.09-.68-.04-.34-.24-.33-.36-.36-.33-.32-.18-.19-.03-.15v-.18s.05-.17.05-.17l.07-.5.09-.18.08-.11v-.16s-.1-.08-.1-.08v-.22s.01-.21.01-.21l.32-.09h.4s.51-.12.51-.12l.33-.34.23-.32.12-.42.06-.51-.03-.55-.07-.24-.05-.23-.02-.41.03-.35.1-.29.28-.27.42-.16.47-.26.39-.14.68-.42.35-.25.24-.32.04-.33.12-.19.21-.21.41-.02.56-.22.23-.23.11-.24v-.21s-.05-.17-.05-.17l-.13-.05-.14-.14.02-.27.13-.18.31-.26.72-.71.32-.35.14-.4v-.26s.02-.36.02-.36l.05-.17.21-.16.21-.16.2-.16.1-.19v-.15s-.01-.14-.01-.14l-.12-.11-.15-.08v-.09s-.12-.07-.12-.07l-.16-.08-.33-.04h-.18s-.1.07-.1.07l-.04.32-.05.39-.15.34-.13.11h-.16s-.25,0-.25,0l-.44.22-.31.23-.39.06-.2.18h-.17s-.08-.22-.08-.22l-.17-.34-.14-.19-.35-.02-.4-.16-.27-.11-.09-.09v-.2s.07-.15.07-.15l.22-.17.23-.08.52-.27.51-.22.24-.18.1-.25.02-.27-.18-.3-.13-.19-.35-.33-.33-.13-.25-.09-.19-.18-.15-.38-.32-.4-.7-.2-.54-.09-.78-.18-.35-.16-.29-.27-.45-.25-.39-.1-.22.06-.36.22-.36.04-.35-.18-.31-.37-.48-.3-.44-.14-1.35-.31-.35-.08-.54.04-.75.29-1.06.12-.32.12-.24.07h-.35s-.18-.14-.18-.14l-.2-.09-1.05-.11-.96-.04-.28.05-.28.12-.13.02-.29-.05-.21-.1-.32-.04h-.65s-1.02.13-1.02.13l-.93.25-.77.08-.33.25-.32.2-.45.06-1.47.11-.41.05-.62.18-.27.24-.28.05-.15.09-.07.14.06.24.02.15-.04.11-.16-.04-.14-.15-.31-.05-1.31-.13-2.19-.11-.99.02-1.09.44-.74.08-.41.16-.31-.05-.2-.11-.17.06-.12.15.07.26.02.24-.22.35-.58.57-.74.5-.59.27-.74.16h-.85s-.71.06-.71.06l-.45.38-.53.41-.57.1h-.53s-.41-.18-.41-.18l-.41-.55-.98-.83-.35-.38-.17-.07h-.16s-.11.35-.11.35l-.07.42-.06.37-.1.16-.23-.02-.16-.1-.15-.18-.09-.25-.05-.16-.13-.09h-.13s-.14.05-.14.05l-.13.1-.17.02-.5-.07h-.51s-.58.08-.58.08l-.4.14-.84.76-1.31.81-1.01.67-.79.55-.8.37-.77.15-.73.05h-.61s-1.09-.07-1.09-.07l-.46-.07-.29-.08-.42-.13-.95-.45-.21-.31-.1-.4.13-.51.43-.45.24-.25.3-.29.27-.31.13-.26.05-.36-.18-.44-.48-.42-.14-.26v-.16s.15-.21.15-.21l.2-.1.22-.06v-.2s0-.17,0-.17l-.19-.23-.3-.19-.37-.29-.16-.14-.08-.4.02-.38-.12-.31-.34-.16-.45-.14-.74-.19-.21-.19-.19-.19-.06-.3-.02-.47-.05-.15-.27-.19-.53-.14-.3-.05h-.55s-1.18-.05-1.18-.05l-.5-.1-.81-.26-.61-.08-.75-.32-.49-.33-.33-.28-.08-.13v-.19s.03-.14.03-.14l.07-.14.1-.12-.03-.47-.08-.22-.54-.35-.57-.17-.91-.15-1.75-.11-1.15-.09-.42-.04-.31.06-.41.36-.4.42-.43.38-.33.59-.27.54-.16.64-.05.72-.08.39-.32.47-.44.62-.29.81-.22.5-.15.75-.14.51-.09.79-.14.89-.1.65-.28.59-.31.51-.58.36-.69.52-1.14.74-.99.78-.91.39-1.37.21-.9.11-.71.25-.73.55-.44.72v.84s.45.58.45.58l.03.99-.65.85-.53.56-.09.64.47.33.04.95-.06.89-.04.64-.27.38-.23.48-.05,1.54-.1,1.58.16.61-.04.59-.45.07-.12,1.03-.06.99.47,1.87.09,3.18.09.9,1.06,1.21.28,1.06.38,1.07,1.1,1.41.85,2.88.59,1.68.25.81.76.55-.06.89-.28.48.21.66,1.2,2.16.72,1.93,2.83,4.5.18,2.49.86,2.04.8,1.44,1.5,1.34,1.24,3.11,1.13,2.46.89,2.34.43,2.56.35,2.26.5,2.17-.22,1.82-.18,2.02-.45.77-.42-.37-.86-.45-1.57-.3-.88-.21-1.24-.08-.63-.19.87-.39,1.29.08,1.1-.08.61-.26.23-.53-.31-.62-.48-1.02-.04-.85.34-.67.05-.84-.45-.67-.29-.81-.39-.87-.58-1.03-.24-.91-.63-.29-1.19-.08-1.49-.05-1.56.3-1.46.3-1,.83.76,1.29,1.25,1.42,1.13.97.15,1.45-.92,1.23-1.84,1.62-4,3.41-1.32,1.63-1.12,1.75-.89,1.59-.41,1.37.38,1.39.49,1.29.84,1.38.45.28.81.16,1.62-.04.8.41,1.09.82.74.23.41.35-.21.49-.6.36-1.6.43-.73.24-.09.82.1.69.54.47,1.37.99,1.45.88.78.7.26.91.51-.11.13-.28.47-.68.99-.28,1.55.33,2.38.58,1.38.32,1.09.89.34.57.45.12.44.19.47-.02.46-.35.29-.4.55-.5.49-.3.87.03,1.16.22.71.17.88.4.48.25.79.43.57.21.17.51-.16.29-.48.49-.43.03-.43-.39-.53-.4-.31-.22-.49-.07-.41-.04-.42-.09h-.39s-.33.14-.33.14l-.77.31-.55.46-.03.33-.23.07h-.12s-.19.21-.19.21l.28.41.32.21.76-.4.43-.08.32.05.07.19-.09.15-.28-.02h-.21s-.21.39-.21.39l.03.14-.17.88-.05.14-.06.17-.09.23-.05.24-.04.31-.2.65-.35-.09-.35-.15-.39-.19-.36.11-.27.32-.26.18-.73.54-.29.16-.22.3-.02.16.16.17.22.05.27-.16.28-.31.36-.23.41-.2,1.37-.5.47-.04.53.18.36.25h.5s.36.19.36.19l.12.42-.14.18-.34.15-.39-.13-.3-.21-.22-.18-.34-.04-.75.12-.37-.09-.52.22-.39.12-.29.19-.02.32-.11.37-.09.42.11.24.2.22.56.1.28.21-.15.35-.34.02-.5-.03-.35-.13-.17-.05-.14-.14-.25.22-.18.22-.23.26-.27.32-.1.5.09.55.47.26,1.09.43.73.09.8.19-.04,1.16-.1.42.14.61.31.13.32.02.51.28.42.13.45.21.77-.48,1.2-.45.41-.29.81-.48.35-.47.41-.93.28-1.01.22-1.15.69-.64.5-.93.87-.54.78-.31.99-.43,1.02-.82.63-.48.62-.71,3.21-.86,1.9-.42,1.03-.25,1.09.07h.7s.59-.23.59-.23l.26-.32.79-.1.85.16.76-.13.99-.12.31.19.25.34.1.16.47.11.33.19.29.02.48.07.42.05.18-.12.33-.02.03.19v.23s.17.09.17.09h.23s.19.1.19.1v.39s.18.07.18.07l.09.16.02.21-.08.32-.05.17-.03.52.21.32.5.28.71.32,1.35.24.74.18.19.11.12.16-.12.32-.07.25-.02.29-.09.26-.2.18-.07.17v.37s.15.32.15.32l.19.07.57.38.4.37.49.51.85.86.17.3.09.39-.03.42-.06.57-.02.29.07.45.05.35-.1.3-.21.24-.35.3-.66.73-.48.55-.2.41-.17.51-.12.3h-.25s-.26-.48-.26-.48l-.45.41-.43.45-.16.62.19.34.14.74.25.61.13.34-.14.39-.32.15h-.17s-.11.23-.11.23v.27s0,.87,0,.87l.29.54.41.56.48.32.34.33v.48s-.12.45-.12.45l-.03.69.33.62.34.37.6.21.07.41-.43.76-.31.85-.4.26-.58.33-.45.11-.84.23-.42.2-.21.26-.02.34.19.4.41.85.24,1.07-.08.92-.43.65-.2.16-.29-.02-.2-.24.06-.28.05-.13.02-.33-.26-.48-.33-.02-.24.18-.21.54-.02.38.15.34.07.14-.04.27-.32.13-.28.12-.25.27-.16.45-.17.53.14.47.2.42-.27.47-.49.52-.2.83-1,1.42-.66.95-.34.2-.43-.07-.15.15.03.17.61.06.37.04.13.26.28.41.13.46-.08.26-.27.04h-.58s-.18.26-.18.26l-.2.3.09.3.35.07.14.05.17-.11.2-.21.43-.24h.33s.59.1.59.1l.54.53.58.61.35.65v.19s-.07.08-.07.08h-.17s-.33-.25-.33-.25l-.26-.15-.33.19-.17.23-.21.24-.06.35.26-.04.2-.17.15-.22.19-.12.21.06.04.2.09.33.15.05.48-.3.27-.23.13-.2.14-.1,2.42.2,1.36.07.3.03.4.12.9.11.19.08.08.03.15.05.18.04.2.04h.19s.16-.04.16-.04l.43-.18h.18s.35-.03.35-.03h.81s.45.1.45.1l.19.07.12.11.11.02.1.04.09-.15.26-.04.25.09.18.08.21.1.12.27.1.14.02.09-.03.19.03.17.06.14.22-.02.24.04h.16s.09,0,.09,0l.1.14.03.09v.08s0,.19,0,.19l.02.11.08.1h.1s.13.05.13.05l.02.17-.11.11-.38-.02-.24-.15-.27-.26-.37-.18-.41-.22-.5.02-.36.2-.13.3v.19s.09.07.09.07l.05.18.03.27-.02.26-.04.15-.08.13-.08.1h-.16s-.24.03-.24.03l-.12-.02-.18-.17-.63-.09h-.4s-.37.08-.37.08h-.21s-.22.02-.22.02l-.2.15-.11.22-.23.13h-.63s-.53-.19-.53-.19h-.6s-.46.23-.46.23l-.16.28-.04.68.09,1.12.21.73.37,1.45.15.45.17.14.54-.04.25-.13.3.07.28.29v.19s-.13.28-.13.28l.08.51.36.63.32.69.24.29.52.9.24.26.17.2.06.18.15.05.15-.05h.13s.33.26.33.26l.36.18.58.12.32.09.12.19.24-.11.09-.21.13-.06.1.16.04.25.24.04.23.17.11.22.13.17.26.02.47.32.41.07.63-.06.37-.06.25-.04.09-.14.13-.09h.28s.25.12.25.12l.8.72.9.79.77.52,1.3.49.75.35.9.72.41.74.08.29v.43s-.02.31-.02.31l-.07.11-.12.13-.04.2v.15s.19.33.19.33l.51.56.35.45,1.01.83.47.27.27.11.48.26.17.22.16.22.11.13.18.08.11.05.16.07.16.18.1.14.13.08.05.15.07.15.06.13.04.18v.08s-.06.08-.06.08l-.09.06h-.1s-.13-.04-.13-.04l-.2-.09-.2-.09-.44-.09h-.13s-.34.03-.34.03l-.21.02-.18.1-.26.25-.11.22-.04.35.03.45.2.35.31.38.54.35.54.23.6.41.28.16.21.29.2.42v.28s-.1.13-.1.13l-.27.07-.48-.05-.14.08-.07.27.08.39.2.66.09.44.2.5.36.53.38.3.86.23.44.18.12.14.16.13.11.1v.18s-.03.17-.03.17l-.14.13-.18.07-.11.1-.08.09-.04.12.15.04.19-.12.21-.16.16-.24.16-.15h.19s.22.16.22.16l.83.65.71.34,1.18.5.53.34.59.34.57.57.35.33.16.37-.11.32-.23.2-.51.09-.18.04-.23.32v.16s.05.13.05.13l-.05.3-.07.07-.07.07-.05.04-.32.05-.38.02-.29-.03-.17-.12-.11-.11-.16-.1-.25-.02-.19.03h-.26s-.33-.05-.33-.05l-.22-.11-.23-.17-.13-.08-.25-.02h-.3s-.29,0-.29,0h-.16s-.11.11-.11.11l-.06.07-.06.14-.02.16-.13.1-.1.09-.06.1-.03.18-.06.14-.12.08-.17.05h-.18s-.41-.31-.41-.31l-.21-.22-.15-.16-.26-.14-.18-.13-.05-.13-.05-.16-.03-.09-.06-.06-.12-.05-.08-.03h-.13s-.13.04-.13.04h-.24s-.15,0-.15,0l-.11.05-.07.06-.05.12-.02.27.06.15.09.1.15.07.18.08.13.06.08.13.08.07.07.2.05.13.05.19.11.13.12.17v.15s-.11.08-.11.08l-.21-.07-.26-.21-.13-.24-.05-.15-.11-.14-.14-.09-.22-.09-.18-.27-.28-.28-.16-.12-.19-.05h-.24s-.14.03-.14.03l-.19.07-.15.1-.1.09-.08.07-.03.1v.08s.06.06.06.06l.1.09.07.1.14.08.1.11.13.18.19.12.14.16.1.28.02.22v.2s.16.22.16.22l.14.15h.17s.08.17.08.17l.18.06.17-.08.12-.13.2-.02.29.03.24.14.1.16.2.27.23.29.16.29.2.23.04.32.06.29.28.09.49.26.55.28.42.52.24.37.03.51.16.59-.02.5-.06.19-.3-.02-.18-.09-.08-.65-.18-.58-.46-.67-.59-.23-.4-.2-.23-.38-.13-.37-.14-.41-.34-.35-.19-.31-.24-.05h-.12s-.09.2-.09.2v.35s.05.24.05.24l.2.2.3.35.08.25-.05.67-.07.31-.08.14h-.26s-.18-.18-.18-.18l-.12-.2-.09-1.03-.05-.35v-.41s-.1-.21-.1-.21l-.18-.11-.12.04-.25.31-.2.2-.15.17-.03.11.11.37.14.48.16.22.08.19v.33s.05.19.05.19l.13.08.07.09.04.11.02.19v.16s.04.17.04.17l.08.12.13.05h.13s.07-.05.07-.05l.03-.09v-.13s.2-.21.2-.21l.33.04.16.26.24.51.07.36.31.42.37.52.14.21.15.14.31.02.3-.11.43-.13.21-.12.34-.07.35.05.18.37.04.38.18.26.22.1.25-.12.2-.28-.11-.36-.19-.15-.43-.25.03-.42.11-.31.4.07.37.23.22.37.21.28.26.17.46.12.1.45v.32s.05.4.05.4l.55.34.59.26.69.11.52.06.35.02h.5s.59.05.59.05l.08.49-.08.28-.24.05-.26-.06-.14-.12-.48-.05-.35-.02-.18.1-.07.45.02.7-.02.57v.33s-.14.14-.14.14l-.32-.04-.29-.19-.15-.45-.11-.33-.33-.35-.32-.15-.42-.2-.61-.67-.41-.42-.16-.49-.11-.25-.34-.13-.32-.09-.32-.11-.28-.04-.39.02-.25.11-.23.25-.43.19-.37.06-.29.09.05.29.27.17.29-.11.4-.15.54-.2.46.03.32.13.18.32-.06.26-.24.05-.32.15-.3.31-.24.07-.2.05-.42-.2-.42-.27-.56-.06h-.5s-.38.12-.38.12l-.28.29-.23.47-.03.43.2.3.43.12h.35s.48.01.48.01l.26.04.14.23-.02.33-.17.25-.09.37.02.33.25.21.38.22h.41s.23-.24.23-.24l.09-.32-.03-.26-.09-.35.27-.18.3.08.3.3.22.46.45.59.54.33.41.08.08.25-.35.03-.24-.06-.68-.04-.12.29.3.31.73.17.29-.3.62-.03.23.31.56.06.54-.38.63-.67.67-.47.67.05.29.21.35.4.58.2.16.47-.08.38.14.36.59.09.5.68.59.58.32.48.1.58.09.28.15.25.3.05.39-.16.43.14.03.41-.2.53-.49-.03-.48-.11-.45-.22h-.22s-.1.31-.1.31l.08.41.66.75.71.37.46.22.15.18h.18s.08-.11.08-.11l.39-.03.28.18.06.24-.09.23-.23.21-.06.36v.37s.4.03.4.03l.3-.09.56.15.39.28.23.11.26.2.15.25.39.25,1.55.86,3.43,1.22,2.32.78,2.48,1.02,2.14.83,2.04.81.34.15.27.11h.26s.12-.21.12-.21l.03-.19-.04-.43-.12-.16-.08-.15-.03-.29v-.29s.08-.48.08-.48l.14-.38.39-.52.44-.34.38-.37.44-.09.68-.06.29-.11.41-.2.39-.04h.56s.52-.02.52-.02l.4-.1.2-.13.14-.4.04-.47v-.24s-.08-.08-.08-.08h-.21s-.3.11-.3.11l-.67.39-.56.38-.21.18h-.3s-.23-.07-.23-.07l-.08-.2-.02-.28.04-.14.06-.09.23-.06.26-.04.33-.2.41-.13.28-.14.28-.15.17-.19.36-.08.21-.03.1-.19.04-.39.08-1.64.07-.76.02-.27-.04-.25h-.14s-.26.19-.26.19l-.13.12-.06.3-.03.18-.24.06-.27-.04-.25.04-.15.13-.22.04-.23.04-.06.34.12.15.11.19h.18s.24-.06.24-.06l.28.07.1.33-.02.32-.06.39-.13.12h-.18s-.19-.15-.19-.15l-.08-.4-.15-.12-.39-.03-.13.05-.13.06-.29.02-.23-.09-.15-.22.03-.39.12-.19-.3-.31-.24-.16-.43-.05-.19.11.02.31.14.38.21.34.15.42-.02.23-.22.04-.51-.09-.69-.65-.45-.51-.14-.38-.19-.07-.33.07-.19.18-.16.29-.19.18h-.18s.02-.37.02-.37l.02-.37.32-.18.28-.25-.08-.38.1-.49.19-.47.31-.32.4-.17.24-.07.22.12.02.25.05.36.14.3.38.17.76.1h.64s.29-.03.29-.03l.12-.13-.22-.32-.08-.48-.22-.7-.24-.76-.19-.51-.1-.52-.08-.2-.11-.07-.13-.02-.13.05-.09.2-.63.2-.8-.1-.54-.51-.16-.53.03-.5.14-.45.32-.37.29-.21.46-.08.42-.13.53-.17.41-.29.38-.2.22-.17.04-.2v-.16s-.21-.13-.21-.13l.13-.31.13-.24.16-.31.48-.45.28-.12.17-.24-.03-.25-.18-.08h-.3s-.17.15-.17.15l-.27-.11-.17-.26.06-.52.21-1.12.11-.7.19-1.56.16-2.15-.14-.65-.16-.63-.34-.7-.61-1.18-.18-.44v-.68s.06-.86.06-.86l-.02-.75-.2-.35-.29-1.07v-.93s.03-1,.03-1l.13-.97.25-1.03.59-.62.41-.54.94-1.07,1.02-.71.71-.44.34-.16.24-.17.13-.25.02-.17-.05-.16-.15-.22-.13-.21-.07-.17.06-.27.32-.12.46-.11.54-.09.37-.03.25-.1.21-.13.26-.03.19-.08.2-.25-.15-.25.04-.33.07-.73.12-.44.33-.36.32-.5.25-.29.24-.03.27.18.1.31.02.45.04.54.24.3.59.32.34.28.17.32-.06.23-.22.1-.02.33-.08.47-.04.3-.06.23.27.23.1.29-.05.35-.04.21.03.21.05.26.21.46.35.38.24.25.02.35-.03.4.03.31.12.27.04.43v.68s.15.32.15.32l.28.02.34.28.06.52.06.5.18.44.32.16.29.18.32.14.35.09.21.32.2.55-.1,2.56.34,1.65.19.37.55.65.47,1.14.03.43-.04.48-.09.08-.05.15.13.11-.08,1.28-.33.47-.09.85.23.48.53.46.56.53-.07.59-.8.61-.96.66-.41.73.13.96.43,1.05.3,1.01-.23.51-.28.28-1.39.87-1.3.88-1.87,1.09-1.24.57-.19,1.01.17.78.62.5.92.56.98.22.71.02.77-.41.94-.22,1.04-.3.93-.03.94.34.71.48.81.92.15.97-.06.96-.36.75-1.09.64-.85.16-1.35-.12-1.44.25-1.34.66-.75.57-.24.36-.04.55.46.53.52.13.62.44.34.46.5.34.57.22,1.31-.1,1.32-.32,1.54-.43,1.41-.68,1.59-.58.99-.06.28.07v.82s-.12,1.3-.12,1.3l-.12.79-.11.98-.36.33-.37.16-.4.16-.12.3v.53s.2.52.2.52l.45.47.18.44.03.56.02.8.33.92.35.93.36.74.49.34.55.16.71.03.47-.09.52.05.28.15.21.39.49.39.57.46.96.1,1.3.66,1.81.97,1.35.51.68.3v.43s-.32.05-.32.05l-6.17-2.6-2.35-.73-.84-.41-1.2-.16-.66-.09-.32.25-.02.27.42.06.54.12.28.41-.04.34-.18.19-.37.4-.28.37-.03.39.19.17.45-.07.4-.33.66-.16.53-.02.86.38.69,1.12,1.13.98.91.96,1.88.46,2.36.1,1.64.14.48.15.17.25.06.34.19.15.33-.03.27-.48.33-.3,1.43-.23,1.45-.36.53-.34.17-.28.27-.27.61-.15.65-.03.59-.17.37-.21.48-.63,1.93-.66,4.38-1.18,3.49-.74,1.97-.37,2.05-.58,1.14-.45,1.06-.59.79-.61.45-.43.41-.6.57-.44,1.16-.84,1.42-.64,3.52-1.7,2.89-.75,2.83-1.14,2.41-1.14,1.93-1.1,1.17-.74.96-.64,1.6-1.62,1.55-1.28,2.45-1.22,1.67-.54,1.01-.33,1.04-.09.54-.14.15-.18.04-.32-.38-.14-.37-.04-.12-.3.22-.21.51-.21.41-.3.48-.07.34.02.39-.49.39-.43.58.05.35.04.16-.31.02-.27-.54-.14-.32-.12-.02-.24-.26-.14-.42-.1-.03-.27.22-.29.42-.18h.54s.64-.09.64-.09l.31-.29.46-.26.3-.12.72-.58.47-.36.13.16.13.33.24-.07.02-.24h.19s.13.12.13.12l.3.12.2.03.2-.23.12-.28.19-.11.43-.12.03-.17-.13-.14-.44-.05h-.44s-.44-.09-.44-.09l-.04-.17-.15-.11h-.46s-.57.05-.57.05l-.69-.08-.36-.18-.14-.25v-.24s.1-.27.1-.27l.07-.3v-.15s-.06-.23-.06-.23l-.07-.16-.27-.09h-.34s-.32.02-.32.02l-.2.12-.14.28-.12.33-.09.35-.06.34-.26.26-.18.11-.21.02-.18.14-.15.45-.04.68-.09.52-.23.43h-.34s-.36-.17-.36-.17l-.41-.34-.41-.41-.03-.76.2-.89.58-2.06.37-1.4.26-.75.73-1.1.62-.97.98-.56.55.04.68.29.39.41.29.33.62.04.09-.31.06-.34.58-.31.28-.09.87.06.45.06.39-.11-.31-.65-.52-.07-.23-.26.39-.08h.49s.45.1.45.1l.44.13.5.35.37.13.25-.09-.25-.5.03-.52.1-.41.51-.38,1.37-.19,1.05-.11.59.07.34.09.38.58.04.42-.54.83-.38-.06-.64-.29-.35-.02-.38.57-.38.5-.66-.04-.4.22.08.35.57.28.52-.04.42-.08.38-.43.5-.21h.35s.68.28.68.28l.27.16.38.06.31-.43.67-.1.65.11.65.15.36.3-.12.31-.24.02-.2.37-.39.18-.38-.09-.72-.15-.32-.37-.46.11-.37.39.44.24-.11.55-.35-.02-.42-.48-.59.03-.28.5-.06.41-.04.55.21.47.29.37.26.23.53-.14.2-.34.17-.41.16-.3.4-.32.31.05.28-.05.38.02.45.03.45.1-.07.48-.99.7-.27.33-.76-.05-.27.4.11.49.7.46.55.11h.38s.09-.32.09-.32l-.11-.42.11-.55.35-.6.76-.51,1.64-1.08.78-.68.57-.28.68-.23.97.03h.38s.27.15.27.15l-.03.45.35-.08.41.1.11.39-.23.37-.42.04-.28.09-.06.41.02.7.45.55.45.03.1-.45.46-.11.46.34-.07.48.21.47.3.68.57-.21-.07-.49-.23-.78.33-.22h.45s.44.16.44.16l.08.84-.02.28.22.43.43.41.37.27.9.06.49.03.78-.26.58-.31.53-.1.42-.04.27-.33.09-.24h.45s.24.01.24.01l.28-.09-.35-.51.67-.06.51.17.44.2.46.38.59.04.49-.07-.14-.46-.67-.39-.66-.08-.36-.3-.12-.32-.21-.47-.84-.51-.52-.07-.43.25-.47.21-.59-.04-.68.23-.35.05-.67-.46-.67-.46.41-.36.42-.11.44-.28.02-.31-.43-.38-.37-.16-.1-.6.06-.45.46-.14.33-.29.29-.64.06-.45.22-.36.76-.35.93-.63.85-.35h.8s.63.27.63.27l1.13.5.89.75.28.49.24.75-.14.71-.09.75-.03.85.34.65.62.46.61.51.3.15h.22s.35-.19.35-.19l.35.05.37.07.04-.27-.62-.38-.22-.33-.24-.42-.26-.73-.3-.58-.12-.52.02-.36.33-.22.11-.37-.06-.41-.25-.24-.19-.12-.05-.25.27-.38.6-.7.57-.83.34-.49.71-.67.78-.66.82-.88.79-.82.57-.92.71-1.12,1.26-.73,1.28-.52,1.26-.4,1.25-.28,1.07-.75.7-.56.38-.48.26-.57.06-.33-.07-.25-.08-.3v-.24s.07-.26.07-.26l.26-.23.34-.41.19-.47.08-.67.03-.41-.17-.32ZM50.65,84.63l-.32.74.18.81-.11.56-1.06-.07-.45-.14.13-.75.58-1.22.12-.6.99-.05-.05.72Zm58.72,78.23h-1.05s-1.42.76-1.42.76l-.95.56-.34.27-.26.05-1.01-.59-.9-.29-.83.17-.97-.19-.6-.76-.08-.76.24-.64.24-.7v-.39s-.37-.38-.37-.38l.74-.38.32-.4h.39s.72,0,.72,0l.8-.27.4-.04.91.03.54-.23.86-.63.63.4-.09.45.37.32.64.66.05.79.06.56.49.46.72.47.55.59-.79.11Zm53.42-24.86l.73.57.11.53-.95-.11-1.14-1.55-1.61-1.63-2.57-1.6-2.81-1.57-2.96-1.43-2.42-.97-2.08-.33-1.52-.1-.02-.48,2.16-.91,2.63-.07,2.03-.35,2.08-.44,2.18.28,1.6.39.97,1.21,1.16,1.94,1.29,1.37-.11.99.23.87.87.58.99.16.45.41-.42.55-.91.8.04.86Zm29.51,42.64l-.06.86-.34.3-.3.39-.17.54-.23,1.4-.3,1.81-.75,1.64-.39,1.07-.17,1.27-.12,1.82-.23.76.17.83.21,1.02-.11,1.04-.44,1.2-.48.38-.54.65-.29.94.22.88-.06.96-.24.85-.7.91-.65.14h-.78s-.91-.7-.91-.7l-.21-1.02-.59-.72-.85-1.01-.79-.55-1.17-.94-.72-.23-.13-.83-.3-.93-.41-.71-.33-.61-.5-.08v-.82s-.1-1.1-.1-1.1l-.32-.71-.49-.26-.28-.61-.24-2.66-.87-2.11-.78-1.33-1.47-1.33-.62-1.05-.74-1.28-.86-.88.04-.64.38-.29-.11-.46-.17-.92.58-1.24.69-1.42.02-1.05.4-.48.23-.76-.29-.38-.54-.13-.51.15.08-.54.64-.78.09-.72.36-.57.75-.32.75-.27.31-.53.37-.71.09-.72.05-.82.02-.96-.09-.74-.46-.62-.74-.51-.97-.57-.99-.16-1.14-.03-.6.1-.51.1-.61-.45-.25-.43-.19-.61-.48-.4-.42-.53-.18-.7-.06-.51.96.02,1.52.46.95.11,1.6-.67,1.07-1.07.37-.71-.05-.69-.33-.61.51-.15,1.07-.25,1.26.31.3,1.02.6,1.36.64.68,1.06.53,1.44.28,1.4.27,1.49.33.7.55.53.9.61,1.23.05.64.92.65.51.54-.04.68-.69.05-.34.34.02.41.14.65-.63.51-.65.83-.17,1.18.28,1.34,1.31,2.32,1.11,1.12.47,1.26.45.81.29,1.21.38.48,1.34,1.23,1.02.52.45.08-.04.68Z"/>
    <polyline class="cls-1" points="48.03 26.34 49.55 25.61 50.81 23.96 52.52 22.15 55.53 20.24 58.58 19.54 59.67 19.55 61.63 18.91 64.17 19.26 65.86 19.89 67.5 21.14 67.62 22.37 67.2 23.88 66.05 24.83 64.7 25.83 64.92 26.48 65.64 28.13 65.88 30.38 65.73 32.68 65.37 35.28 64.91 37.36 64.25 38.73 63.11 40.44 62.76 41.83 63.25 43.27 64.59 44.25 66.3 45.45 66.66 45.92 65.86 46.32 64.75 46.63 64.2 47.24 64.82 47.53 66.4 47.83 67.92 48.12 68.61 48.35 69.02 48.96 69.36 49.68 69.85 51 71.17 51.27 72.23 51.73 73.34 52.38 74.49 53.35 75.66 55.02 77.14 56.97 77.64 58.1 77.84 59 77.94 60.36 78.95 61.57 81.25 63.58 82.53 64.62 83.98 64.91 85.81 65.28 87.49 66.03 89.11 66.78 90.47 67.51 91.11 68.51 91.59 69.95 92.33 71.28 93.68 72.26 95.03 73.18 96.91 74.65 98.27 75.38 99.67 75.53 101.11 76.14 101.66 76.49 102.41 76.8 103.83 76.64 105.87 75.74 107.58 74.96 109.24 75.07 111.75 75.87 112.52 76.82 113.13 78.27 113.33 80.14 114.12 82.68 115.12 85.05 115.8 86.38 116.17 87.49 117.75 88.81 119.54 89.82 121.86 90.61 124.08 91.84 125.41 93.15 125.66 95.21 124.94 96.38 123.88 97.85 122.58 99.24 121.52 100.7 120.05 101.69 119.31 102.29 118.58 103.65 118.05 104.89 117.04 106.68 116.06 107.9 114.9 109.04 114.45 110.03 114.73 111.59 115.28 113.03 116.64 114.79 118.53 116.19 120.17 117.51 121.76 118.64 121.79 119.22 120.62 119.46 120.14 119.94 120.12 121.16 120.78 121.9 122.68 122.16 124.94 122.82 126.62 123.56 128.65 123.89 131.29 123.61 135.34 123.43 137.45 123.37 139.22 123.81 139.91 123.92 140.68 122.94 142.77 121.35 145.19 120.61 147.83 120.27 150.45 121.34 157.06 124.08 160.98 125.68 162.15 126.52 161.59 127.25 160.49 127.31 158.56 127.5 156.46 127.37 154.04 127.14 151.87 127.07 149.44 127.04 147.23 126.57 146.29 127.21 145.14 128.16 144.85 128.66 144.36 129.33 144.57 130.05 145.68 130.63 147.64 131.14 149.34 131.51 150.37 132.41 151.39 133.5 153.21 134 155.55 134.47 158.03 135.66 160.19 137.91 162.53 139.35 164.17 140.6 166.43 141.33 167.68 141.79 169.29 142.54 170.19 143.49 170.79 144.11 170.93 145.01 170.87 145.91 170.43 146.77 170.56 147.68 171.29 148.3 171.38 148.88 172.25 149.2 173.33 149.39 174.94 150.14 175.18 151.37 175.12 152.39 173.83 152.56 172.12 152.26 170.57 151.45 169.34 150.73 167.62 150.62 166.63 150.94 165.08 150.2 163.85 148.52 162.79 147.11 161.59 146.77 159.82 147.49 158.65 148.69 157.47 150.15 156.07 152.05 155.31 153.79 155.37 155.78 156.18 157.17 157.5 158.48 158.55 160.02 159.47 161.61 160.82 162.6 162.35 163.59 164.06 164.86 165.65 166.05 167.82 167.08 168.83 167.34 170.33 167.95 170.97 168.83 171.16 169.93 170.4 172.76 169.8 174.06 169.28 175.18 169.1 176 169.23 176.97 169.69 177.64 169.63 178.6 168.99 179.58 168.73 180.71 169.21 182.09 169.76 183.47 170.67 185.26 172.02 186.18 172.94 187.77 173.43 189.02 173.57 190.88 173.45 192.67 173.48 194.21 174.03 195.59 175.45 197.41 177.06 199.11 178.7 200.56 181.21 203.22 182.56 204.21 183.2 205.15 183.6 205.88 184.34 206.24 185.71 206.85 186.57 207.41 186.7 208.32 187.09 209.3 187.96 209.68 188.98 209.75 189.59 210.17 189.59 211.19 189.28 212.01 188.38 212.14 187.68 212.03 187.23 213.02 187.26 213.6 185.86 214.47 184.63 215.61 184.14 216.22 183.28 216.73 182.21 216.41 181.25 216.41 180.74 216.38 180.18 217.11 180.25 218.01 180.64 218.87 180.89 219.91 180.84 220.67 180.41 221.35 180.38 221.92 180.37 223.01 179.67 223.99 178.21 224.66 176.68 224.69 175.11 224.14 173.97 224 173.01 224 172.2 224.65 171.88 225.59 171.21 226.12 170.19 226.06 169.12 225.73 167.61 225.31 166.82 225.71 166.5 226.65 165.49 227.48 163.88 227.63 162.53 227.67 161.51 227.67 161.09 228.15 160.07 230.01 159.63 230.94 158.89 231.4 157.23 231.36 156.12 231.67 154.87 232.29 154.09 232.43 153.25 232.51 152.39 232.96 150.81 233.69 149.85 233.69 147.56 233.48 146.03 233.32 145.16 232.88 143.87 232.09 143.36 231.09 143.33 229.62 143.5 228.03 144.19 226.16 145.03 225.06 146.02 224.68 147.88 224.54 150.7 224.6 152.69 224.47 153.9 224.55 154.5 224.2 154.79 223.65 154.2 222.9 153.39 222.53 151.04 222.25 148.06 221.86 145.64 221.64 144.46 221.12 145.01 220.51 146.12 220.14 146.49 219.46 146.35 218.68 145.69 217.93 145.08 217.45 145.13 216.68 146 216.1 147.17 215.79 148.53 215.62 149.71 215.12 149.76 214.49 148.83 213.91 147.27 213.36 145.52 212.74 144.66 212.17 143.23 211.44 141.81 211.73 140.29 211.5 138.45 211.19 136.73 211.01 135.23 210.53 133.71 209.34 133.25 208.48 133.74 207.87 134.2 207.71 134.62 207.1 134.53 206.52 133.87 205.83 132.74 205.44 131.31 204.9 130.34 204.07 130.02 203.09 129.97 201.87 130.48 200.94 130.51 199.53 130.08 198.16 129.55 197.55 129.29 196.58 128.33 194.59 127.12 192.53 125.61 190.25 123.32 186.07 122.54 183.27 122.02 181.51 121.74 179.83 120.72 178.8 118.39 178.2 116.03 178.11 114.46 177.56 113.38 174.61 112.66 171.87 112.27 168.97 112.46 167.12 112.79 165.99 113.53 165.34 113.91 164.53 113.59 163.49 112.97 162.23 111.51 162.07 110.79 160.29 109.95 159.47 109.12 158.39 109.07 157.24 109.62 156.7 110.49 156.11 111.73 155.62 112.76 153.64 113.07 151.87 112.73 150.12 112 148.66 111.13 147.26 109.68 145.89 108.26 145.09 106.01 144.3 104.32 143.62 102.5 143.05 100.91 143.01 99.6 143.37 95.23 145.65 93.69 146.76 92.97 147.93 92.24 149.29 90.84 150.23 89.39 150.84 88.56 151.74 87.92 152.79 87.59 153.85 86.62 155.07 85.31 156.39 84.72 157.64 83.17 158.81 82.47 159.79 81.57 160.82 80.96 162.32 80.43 163.56 79.56 164.21 78.35 165.03 76.84 164.67 75.67 163.89 74.71 162.87 73.35 162.27 72.29 161.75 72.33 161.12 73.02 160.39 73.2 159.64 72.32 158.3 71.44 157.22 69.84 157.11 68.9 156.8 67.65 155.37 67.76 153.78 68.18 153.17 67.8 152.12 67.81 150.9 67.93 148.16 67.91 146.49 67.11 144.01 67.61 143.21 67.42 142.24 67.27 140.56 67.76 138.93 67.74 137.39 68.01 136.19 68.42 134.68 69.11 133.06 68.35 130.9 67.3 128.34 66.59 125.54 65.29 121.93 65.22 119.95 64.39 118.93 62.73 117.99 61.47 117.65 61.2 116.87 60.82 115.76 59.15 114.88 54.1 111.86 54.33 111.3 55.66 111.58 59.16 111.81 59.39 111.25 58.02 110.64 56.81 109.61 55.91 108.71 55.88 107.11 56 105.33 56.5 103.51 56.01 102.19 54.93 100.07 53.51 98.38 51.92 96.29 51.62 93.91 51.82 91.87 52.4 90.88 53.9 89.38 54.43 88.2 54.06 87.02 53.6 85.14 52.59 83.98 51.09 83.38 49.47 82.82 49.33 82.04 48.19 81.78 46.9 81.89 45.83 81.62 44.99 80.87 44.1 80.74 43.41 81.53 42.51 82.5 41.9 82.07 41.6 80.71 41.09 77.79 40.25 75.88 39.56 73.79 38.25 72.3 36.59 71.23 35.68 70.4 35.53 68.86 36.06 66.52 35.57 65.21 35.36 63.6 34.7 62.98 33.86 62.03 34.02 60.57 34.96 59.92 35.4 59.05 35.16 57.76 35.33 56.11 35.7 54.4 35.49 51.83 34.96 50 34.85 47.88 35.02 46.17 35.93 44.94 37.09 43.87 37.98 43.03 38.3 41.96 39.18 41.32 40.43 40.76 41.23 40.36 42.06 39.33 42.58 38.27 43.48 37.24 44.41 35.77 45.36 33.91 45.28 32.18 45.05 30.82 45.43 29.82"/>
  </g>
</svg>